<?xml version="1.0" encoding="utf-8"?>
<svg version="1.1" xmlns:xlink="http://www.w3.org/1999/xlink" width="14px" height="14px" xmlns="http://www.w3.org/2000/svg">
  <g transform="matrix(1 0 0 1 -339 -37 )">
    <path d="M 346 38  C 349.36 38  352 40.64  352 44  C 352 47.36  349.36 50  346 50  C 342.64 50  340 47.36  340 44  C 340 40.64  342.64 38  346 38  Z " fill-rule="nonzero" fill="#0d0d51" stroke="none" />
    <path d="M 346 38  C 349.36 38  352 40.64  352 44  C 352 47.36  349.36 50  346 50  C 342.64 50  340 47.36  340 44  C 340 40.64  342.64 38  346 38  Z " stroke-width="2" stroke="#ffffff" fill="none" />
  </g>
</svg>