<?xml version="1.0" encoding="utf-8"?>
<svg version="1.1" xmlns:xlink="http://www.w3.org/1999/xlink" width="519px" height="142px" xmlns="http://www.w3.org/2000/svg">
  <g transform="matrix(1 0 0 1 -2899 -333 )">
    <path d="M 2900 337  A 3 3 0 0 1 2903 334 L 3414 334  A 3 3 0 0 1 3417 337 L 3417 471  A 3 3 0 0 1 3414 474 L 2903 474  A 3 3 0 0 1 2900 471 L 2900 337  Z " fill-rule="nonzero" fill="#000000" stroke="none" fill-opacity="0.0196078431372549" />
    <path d="M 2899.5 337  A 3.5 3.5 0 0 1 2903 333.5 L 3414 333.5  A 3.5 3.5 0 0 1 3417.5 337 L 3417.5 471  A 3.5 3.5 0 0 1 3414 474.5 L 2903 474.5  A 3.5 3.5 0 0 1 2899.5 471 L 2899.5 337  Z " stroke-width="1" stroke-dasharray="9,4" stroke="#d9d9d9" fill="none" stroke-dashoffset="0.5" />
  </g>
</svg>