<?xml version="1.0" encoding="utf-8"?>
<svg version="1.1" xmlns:xlink="http://www.w3.org/1999/xlink" width="236px" height="36px" xmlns="http://www.w3.org/2000/svg">
  <g transform="matrix(1 0 0 1 -16 -44 )">
    <path d="M 238.068481616806 44.5  C 238.068481616806 44.5  240.944977093829 44.7193937228238  240.944977093829 44.7193937228238  C 240.944977093829 44.7193937228238  251.473952347048 62  251.473952347048 62  C 251.473952347048 62  240.944977093829 79.2806062771762  240.944977093829 79.2806062771762  C 240.944977093829 79.2806062771762  238.068481616806 79.5  238.068481616806 79.5  C 238.068481616806 79.5  16.5 79.5  16.5 79.5  C 16.5 79.5  16.5 44.5  16.5 44.5  C 16.5 44.5  238.068481616806 44.5  238.068481616806 44.5  Z " fill-rule="nonzero" fill="#0079fe" stroke="none" />
    <path d="M 238.068481616806 44.5  C 238.068481616806 44.5  240.944977093829 44.7193937228238  240.944977093829 44.7193937228238  C 240.944977093829 44.7193937228238  251.473952347048 62  251.473952347048 62  C 251.473952347048 62  240.944977093829 79.2806062771762  240.944977093829 79.2806062771762  C 240.944977093829 79.2806062771762  238.068481616806 79.5  238.068481616806 79.5  C 238.068481616806 79.5  16.5 79.5  16.5 79.5  C 16.5 79.5  16.5 44.5  16.5 44.5  C 16.5 44.5  238.068481616806 44.5  238.068481616806 44.5  Z " stroke-width="1" stroke="#0079fe" fill="none" />
  </g>
</svg>