<?xml version="1.0" encoding="utf-8"?>
<svg version="1.1" xmlns:xlink="http://www.w3.org/1999/xlink" width="20px" height="12px" xmlns="http://www.w3.org/2000/svg">
  <g transform="matrix(1 0 0 1 -197 -9 )">
    <path d="M 19.7995991983968 9.81443298969072  C 19.9331997327989 9.95189003436426  20 10.1099656357388  20 10.2886597938144  C 20 10.46735395189  19.9331997327989 10.6254295532646  19.7995991983968 10.7628865979381  L 18.7975951903808 11.7938144329897  C 18.6639946559786 11.9312714776632  18.5103540414162 12  18.3366733466934 12  C 18.1629926519706 12  18.0093520374081 11.9312714776632  17.875751503006 11.7938144329897  L 10 3.69072164948454  L 2.12424849699399 11.7938144329897  C 1.99064796259185 11.9312714776632  1.83700734802939 12  1.66332665330661 12  C 1.48964595858383 12  1.33600534402138 11.9312714776632  1.20240480961924 11.7938144329897  L 0.200400801603206 10.7628865979381  C 0.066800267201069 10.6254295532646  0 10.46735395189  0 10.2886597938144  C 0 10.1099656357388  0.066800267201069 9.95189003436426  0.200400801603206 9.81443298969072  L 9.53907815631263 0.20618556701031  C 9.67267869071476 0.0687285223367682  9.82631930527722 0  10 0  C 10.1736806947228 0  10.3273213092852 0.0687285223367682  10.4609218436874 0.20618556701031  L 19.7995991983968 9.81443298969072  Z " fill-rule="nonzero" fill="#000000" stroke="none" transform="matrix(1 0 0 1 197 9 )" />
  </g>
</svg>