<?xml version="1.0" encoding="utf-8"?>
<svg version="1.1" xmlns:xlink="http://www.w3.org/1999/xlink" width="236px" height="36px" xmlns="http://www.w3.org/2000/svg">
  <g transform="matrix(1 0 0 1 -28 -42 )">
    <path d="M 250.068481616806 42.5  C 250.068481616806 42.5  252.944977093829 42.7193937228238  252.944977093829 42.7193937228238  C 252.944977093829 42.7193937228238  263.473952347048 60  263.473952347048 60  C 263.473952347048 60  252.944977093829 77.2806062771762  252.944977093829 77.2806062771762  C 252.944977093829 77.2806062771762  250.068481616806 77.5  250.068481616806 77.5  C 250.068481616806 77.5  28.5 77.5  28.5 77.5  C 28.5 77.5  28.5 42.5  28.5 42.5  C 28.5 42.5  250.068481616806 42.5  250.068481616806 42.5  Z " fill-rule="nonzero" fill="#0079fe" stroke="none" />
    <path d="M 250.068481616806 42.5  C 250.068481616806 42.5  252.944977093829 42.7193937228238  252.944977093829 42.7193937228238  C 252.944977093829 42.7193937228238  263.473952347048 60  263.473952347048 60  C 263.473952347048 60  252.944977093829 77.2806062771762  252.944977093829 77.2806062771762  C 252.944977093829 77.2806062771762  250.068481616806 77.5  250.068481616806 77.5  C 250.068481616806 77.5  28.5 77.5  28.5 77.5  C 28.5 77.5  28.5 42.5  28.5 42.5  C 28.5 42.5  250.068481616806 42.5  250.068481616806 42.5  Z " stroke-width="1" stroke="#0079fe" fill="none" />
  </g>
</svg>