<?xml version="1.0" encoding="utf-8"?>
<svg version="1.1" xmlns:xlink="http://www.w3.org/1999/xlink" width="80px" height="30px" xmlns="http://www.w3.org/2000/svg">
  <g transform="matrix(1 0 0 1 -2123 -542 )">
    <path d="M 2124 545  A 2 2 0 0 1 2126 543 L 2200 543  A 2 2 0 0 1 2202 545 L 2202 569  A 2 2 0 0 1 2200 571 L 2126 571  A 2 2 0 0 1 2124 569 L 2124 545  Z " fill-rule="nonzero" fill="#f0f7ff" stroke="none" />
    <path d="M 2123.5 545  A 2.5 2.5 0 0 1 2126 542.5 L 2200 542.5  A 2.5 2.5 0 0 1 2202.5 545 L 2202.5 569  A 2.5 2.5 0 0 1 2200 571.5 L 2126 571.5  A 2.5 2.5 0 0 1 2123.5 569 L 2123.5 545  Z " stroke-width="1" stroke="#7abbff" fill="none" stroke-opacity="0.996078431372549" />
  </g>
</svg>