<?xml version="1.0" encoding="utf-8"?>
<svg version="1.1" xmlns:xlink="http://www.w3.org/1999/xlink" width="11px" height="17px" xmlns="http://www.w3.org/2000/svg">
  <g transform="matrix(1 0 0 1 -11 -23 )">
    <path d="M 10.8109965635739 1.02204408817635  C 10.9369988545246 1.13560454241817  11 1.26619906479626  11 1.41382765531062  C 11 1.56145624582498  10.9369988545246 1.69205076820307  10.8109965635739 1.80561122244489  L 3.38316151202749 8.5  L 10.8109965635739 15.1943887775551  C 10.9369988545246 15.3079492317969  11 15.438543754175  11 15.5861723446894  C 11 15.7338009352037  10.9369988545246 15.8643954575818  10.8109965635739 15.9779559118236  L 9.8659793814433 16.8296593186373  C 9.73997709049256 16.9432197728791  9.5950744558992 17  9.43127147766323 17  C 9.26746849942726 17  9.12256586483391 16.9432197728791  8.99656357388316 16.8296593186373  L 0.189003436426117 8.89178356713427  C 0.0630011454753723 8.77822311289245  0 8.64762859051436  0 8.5  C 0 8.35237140948564  0.0630011454753723 8.22177688710755  0.189003436426117 8.10821643286573  L 8.99656357388316 0.170340681362726  C 9.12256586483391 0.0567802271209079  9.26746849942726 0  9.43127147766323 0  C 9.5950744558992 0  9.73997709049256 0.0567802271209079  9.8659793814433 0.170340681362726  L 10.8109965635739 1.02204408817635  Z " fill-rule="nonzero" fill="#000000" stroke="none" transform="matrix(1 0 0 1 11 23 )" />
  </g>
</svg>