<?xml version="1.0" encoding="utf-8"?>
<svg version="1.1" xmlns:xlink="http://www.w3.org/1999/xlink" width="21px" height="17px" xmlns="http://www.w3.org/2000/svg">
  <g transform="matrix(1 0 0 1 -335 -113 )">
    <path d="M 9.79372197309417 12.75  L 10.4529147982063 12.75  L 11.8183856502242 11.3494318181818  L 10.0291479820628 9.51420454545454  L 8.66367713004484 10.9147727272727  L 8.66367713004484 11.5909090909091  L 9.79372197309417 11.5909090909091  L 9.79372197309417 12.75  Z M 15.6205156950673 4.45525568181818  C 15.7539237668161 4.31841856060606  15.7578475336323 4.18560606060606  15.6322869955157 4.05681818181818  C 15.5067264573991 3.9280303030303  15.3772421524664 3.93205492424242  15.2438340807175 4.06889204545455  L 11.1238789237668 8.29474431818182  C 10.9904708520179 8.43158143939394  10.9865470852018 8.56439393939394  11.1121076233184 8.69318181818182  C 11.237668161435 8.8219696969697  11.3671524663677 8.81794507575757  11.5005605381166 8.68110795454546  L 15.6205156950673 4.45525568181818  Z M 16.3385650224215 10.8785511363636  C 16.4955156950673 10.9429450757576  16.5739910313901 11.0596590909091  16.5739910313901 11.2286931818182  L 16.5739910313901 13.5227272727273  C 16.5739910313901 14.4805871212121  16.242432735426 15.2995975378788  15.5793161434978 15.9797585227273  C 14.9161995515695 16.6599195075758  14.1177130044843 17  13.1838565022422 17  L 3.39013452914798 17  C 2.45627802690583 17  1.65779147982063 16.6599195075758  0.994674887892377 15.9797585227273  C 0.331558295964126 15.2995975378788  0 14.4805871212121  0 13.5227272727273  L 0 3.47727272727273  C 0 2.51941287878788  0.331558295964126 1.70040246212121  0.994674887892377 1.02024147727273  C 1.65779147982063 0.340080492424241  2.45627802690583 0  3.39013452914798 0  L 13.1838565022422 0  C 13.6782511210762 0  14.137331838565 0.100615530303029  14.5610986547085 0.30184659090909  C 14.6788116591928 0.358191287878787  14.7494394618834 0.450757575757575  14.7729820627803 0.579545454545454  C 14.7965246636771 0.716382575757575  14.7612107623318 0.83309659090909  14.6670403587444 0.9296875  L 14.0902466367713 1.52130681818182  C 13.9803811659193 1.63399621212121  13.8548206278027 1.66619318181818  13.7135650224215 1.61789772727273  C 13.5330717488789 1.56960227272727  13.3565022421525 1.54545454545455  13.1838565022422 1.54545454545455  L 3.39013452914798 1.54545454545455  C 2.87219730941704 1.54545454545455  2.42881165919283 1.73461174242424  2.05997757847534 2.11292613636364  C 1.69114349775785 2.49124053030303  1.5067264573991 2.94602272727273  1.5067264573991 3.47727272727273  L 1.5067264573991 13.5227272727273  C 1.5067264573991 14.0539772727273  1.69114349775785 14.508759469697  2.05997757847534 14.8870738636364  C 2.42881165919283 15.2653882575758  2.87219730941704 15.4545454545455  3.39013452914798 15.4545454545455  L 13.1838565022422 15.4545454545455  C 13.7017937219731 15.4545454545455  14.1451793721973 15.2653882575758  14.5140134529148 14.8870738636364  C 14.8828475336323 14.508759469697  15.067264573991 14.0539772727273  15.067264573991 13.5227272727273  L 15.067264573991 12.0014204545455  C 15.067264573991 11.8967803030303  15.1025784753363 11.8082386363636  15.1732062780269 11.7357954545455  L 15.9265695067265 10.9630681818182  C 16.0442825112108 10.8423295454545  16.1816143497758 10.8141571969697  16.3385650224215 10.8785511363636  Z M 7.53363228699552 10.4318181818182  L 15.4439461883408 2.31818181818182  L 18.8340807174888 5.79545454545455  L 10.9237668161435 13.9090909090909  L 7.53363228699552 13.9090909090909  L 7.53363228699552 10.4318181818182  Z M 21 3.09090909090909  C 21 3.41287878787879  20.890134529148 3.68655303030303  20.6704035874439 3.91193181818182  L 19.5874439461883 5.02272727272727  L 16.1973094170404 1.54545454545455  L 17.280269058296 0.43465909090909  C 17.5 0.209280303030301  17.7668161434978 0.0965909090909099  18.0807174887892 0.0965909090909099  C 18.3946188340807 0.0965909090909099  18.6614349775785 0.209280303030301  18.8811659192825 0.43465909090909  L 20.6704035874439 2.26988636363636  C 20.890134529148 2.49526515151515  21 2.76893939393939  21 3.09090909090909  Z " fill-rule="nonzero" fill="#000000" stroke="none" transform="matrix(1 0 0 1 335 113 )" />
  </g>
</svg>