<?xml version="1.0" encoding="utf-8"?>
<svg version="1.1" xmlns:xlink="http://www.w3.org/1999/xlink" width="75px" height="26px" xmlns="http://www.w3.org/2000/svg">
  <defs>
    <linearGradient gradientUnits="userSpaceOnUse" x1="48.5" y1="68" x2="48.5000000000001" y2="101.212765957447" id="LinearGradient36">
      <stop id="Stop37" stop-color="#07b3f7" stop-opacity="0.674509803921569" offset="0" />
      <stop id="Stop38" stop-color="#409eff" offset="0.99" />
      <stop id="Stop39" stop-color="#81d3f8" offset="1" />
    </linearGradient>
  </defs>
  <g transform="matrix(1 0 0 1 -11 -68 )">
    <path d="M 11.5 81  A 12.5 12.5 0 0 1 24 68.5 L 73 68.5  A 12.5 12.5 0 0 1 85.5 81 A 12.5 12.5 0 0 1 73 93.5 L 24 93.5  A 12.5 12.5 0 0 1 11.5 81 Z " fill-rule="nonzero" fill="url(#LinearGradient36)" stroke="none" />
    <path d="M 11.5 81  A 12.5 12.5 0 0 1 24 68.5 L 73 68.5  A 12.5 12.5 0 0 1 85.5 81 A 12.5 12.5 0 0 1 73 93.5 L 24 93.5  A 12.5 12.5 0 0 1 11.5 81 Z " stroke-width="1" stroke="#e9e9e9" fill="none" />
  </g>
</svg>