<?xml version="1.0" encoding="utf-8"?>
<svg version="1.1" xmlns:xlink="http://www.w3.org/1999/xlink" width="57px" height="30px" xmlns="http://www.w3.org/2000/svg">
  <g transform="matrix(1 0 0 1 -354 -546 )">
    <path d="M 355 549  A 2 2 0 0 1 357 547 L 408 547  A 2 2 0 0 1 410 549 L 410 573  A 2 2 0 0 1 408 575 L 357 575  A 2 2 0 0 1 355 573 L 355 549  Z " fill-rule="nonzero" fill="#f0f7ff" stroke="none" />
    <path d="M 354.5 549  A 2.5 2.5 0 0 1 357 546.5 L 408 546.5  A 2.5 2.5 0 0 1 410.5 549 L 410.5 573  A 2.5 2.5 0 0 1 408 575.5 L 357 575.5  A 2.5 2.5 0 0 1 354.5 573 L 354.5 549  Z " stroke-width="1" stroke="#7abbff" fill="none" stroke-opacity="0.996078431372549" />
  </g>
</svg>