<?xml version="1.0" encoding="utf-8"?>
<svg version="1.1" xmlns:xlink="http://www.w3.org/1999/xlink" width="309px" height="40px" xmlns="http://www.w3.org/2000/svg">
  <defs>
    <mask fill="white" id="clip159">
      <path d="M 0 35  L 0 5  C 0 2.19999999999999  2.20000000000005 0  5 0  L 167.545454545455 0  L 304 0  C 306.8 0  309 2.19999999999999  309 5  L 309 35  C 309 37.8  306.8 40  304 40  L 5 40  C 2.20000000000005 40  0 37.8  0 35  Z " fill-rule="evenodd" />
    </mask>
  </defs>
  <g transform="matrix(1 0 0 1 -266 -157 )">
    <path d="M 0 35  L 0 5  C 0 2.19999999999999  2.20000000000005 0  5 0  L 167.545454545455 0  L 304 0  C 306.8 0  309 2.19999999999999  309 5  L 309 35  C 309 37.8  306.8 40  304 40  L 5 40  C 2.20000000000005 40  0 37.8  0 35  Z " fill-rule="nonzero" fill="#0079fe" stroke="none" transform="matrix(1 0 0 1 266 157 )" />
    <path d="M 0 35  L 0 5  C 0 2.19999999999999  2.20000000000005 0  5 0  L 167.545454545455 0  L 304 0  C 306.8 0  309 2.19999999999999  309 5  L 309 35  C 309 37.8  306.8 40  304 40  L 5 40  C 2.20000000000005 40  0 37.8  0 35  Z " stroke-width="2" stroke="#0079fe" fill="none" transform="matrix(1 0 0 1 266 157 )" mask="url(#clip159)" />
  </g>
</svg>