<?xml version="1.0" encoding="utf-8"?>
<svg version="1.1" xmlns:xlink="http://www.w3.org/1999/xlink" width="12px" height="12px" viewBox="184 244.5  12 12" xmlns="http://www.w3.org/2000/svg">
  <path d="M 190 244.5  C 193.36 244.5  196 247.14  196 250.5  C 196 253.86  193.36 256.5  190 256.5  C 186.64 256.5  184 253.86  184 250.5  C 184 247.14  186.64 244.5  190 244.5  Z " fill-rule="nonzero" fill="#ffffff" stroke="none" />
  <path d="M 190 245  C 193.08 245  195.5 247.42  195.5 250.5  C 195.5 253.58  193.08 256  190 256  C 186.92 256  184.5 253.58  184.5 250.5  C 184.5 247.42  186.92 245  190 245  Z " stroke-width="1" stroke="#797979" fill="none" />
  <path d="M 190 253.5  C 188.32 253.5  187 252.18  187 250.5  C 187 248.82  188.32 247.5  190 247.5  C 191.68 247.5  193 248.82  193 250.5  C 193 252.18  191.68 253.5  190 253.5  " fill-rule="nonzero" fill="#797979" stroke="none" />
</svg>