<?xml version="1.0" encoding="utf-8"?>
<svg version="1.1" xmlns:xlink="http://www.w3.org/1999/xlink" width="12px" height="12px" viewBox="267 244.5  12 12" xmlns="http://www.w3.org/2000/svg">
  <path d="M 273 244.5  C 276.36 244.5  279 247.14  279 250.5  C 279 253.86  276.36 256.5  273 256.5  C 269.64 256.5  267 253.86  267 250.5  C 267 247.14  269.64 244.5  273 244.5  Z " fill-rule="nonzero" fill="#f0f0f0" stroke="none" />
  <path d="M 273 245  C 276.08 245  278.5 247.42  278.5 250.5  C 278.5 253.58  276.08 256  273 256  C 269.92 256  267.5 253.58  267.5 250.5  C 267.5 247.42  269.92 245  273 245  Z " stroke-width="1" stroke="#797979" fill="none" />
  <path d="M 273 253.5  C 271.32 253.5  270 252.18  270 250.5  C 270 248.82  271.32 247.5  273 247.5  C 274.68 247.5  276 248.82  276 250.5  C 276 252.18  274.68 253.5  273 253.5  " fill-rule="nonzero" fill="#797979" stroke="none" />
</svg>