<?xml version="1.0" encoding="utf-8"?>
<svg version="1.1" xmlns:xlink="http://www.w3.org/1999/xlink" width="10px" height="8px" xmlns="http://www.w3.org/2000/svg">
  <g transform="matrix(1 0 0 1 -832 -143 )">
    <path d="M 9.94698660714286 5.19940476190476  C 9.98232886904762 5.23710317460317  10 5.28174603174603  10 5.33333333333333  L 10 6.47619047619048  C 10 6.52777777777778  9.98232886904762 6.57242063492064  9.94698660714286 6.61011904761905  C 9.9116443452381 6.64781746031746  9.86979166666667 6.66666666666667  9.82142857142857 6.66666666666667  L 2.14285714285714 6.66666666666667  L 2.14285714285714 7.80952380952381  C 2.14285714285714 7.86111111111111  2.12518601190476 7.90575396825397  2.08984375 7.94345238095238  C 2.05450148809524 7.98115079365079  2.01264880952381 8  1.96428571428571 8  C 1.91964285714286 8  1.875 7.98015873015873  1.83035714285714 7.94047619047619  L 0.0502232142857143 6.03571428571429  C 0.0167410714285714 6  0 5.95634920634921  0 5.90476190476191  C 0 5.84920634920635  0.0167410714285714 5.80357142857143  0.0502232142857143 5.76785714285714  L 1.8359375 3.86309523809524  C 1.86941964285714 3.82738095238095  1.91220238095238 3.80952380952381  1.96428571428571 3.80952380952381  C 2.01264880952381 3.80952380952381  2.05450148809524 3.82837301587302  2.08984375 3.86607142857143  C 2.12518601190476 3.90376984126984  2.14285714285714 3.9484126984127  2.14285714285714 4  L 2.14285714285714 5.14285714285714  L 9.82142857142857 5.14285714285714  C 9.86979166666667 5.14285714285714  9.9116443452381 5.16170634920635  9.94698660714286 5.19940476190476  Z M 9.94977678571429 1.95833333333333  C 9.98325892857143 1.99404761904762  10 2.03968253968254  10 2.09523809523809  C 10 2.15079365079365  9.98325892857143 2.19642857142857  9.94977678571429 2.23214285714286  L 8.1640625 4.13690476190476  C 8.13058035714286 4.17261904761905  8.08779761904762 4.19047619047619  8.03571428571429 4.19047619047619  C 7.98735119047619 4.19047619047619  7.94549851190476 4.17162698412698  7.91015625 4.13392857142857  C 7.87481398809524 4.09623015873016  7.85714285714286 4.0515873015873  7.85714285714286 4  L 7.85714285714286 2.85714285714286  L 0.178571428571429 2.85714285714286  C 0.130208333333333 2.85714285714286  0.0883556547619048 2.83829365079365  0.0530133928571429 2.80059523809524  C 0.017671130952381 2.76289682539683  0 2.71825396825397  0 2.66666666666667  L 0 1.52380952380952  C 0 1.47222222222222  0.017671130952381 1.42757936507936  0.0530133928571429 1.38988095238095  C 0.0883556547619048 1.35218253968254  0.130208333333333 1.33333333333333  0.178571428571429 1.33333333333333  L 7.85714285714286 1.33333333333333  L 7.85714285714286 0.190476190476191  C 7.85714285714286 0.134920634920634  7.87388392857143 0.0892857142857144  7.90736607142857 0.0535714285714288  C 7.94084821428571 0.0178571428571432  7.98363095238095 0  8.03571428571429 0  C 8.08035714285714 0  8.125 0.0198412698412698  8.16964285714286 0.0595238095238093  L 9.94977678571429 1.95833333333333  Z " fill-rule="nonzero" fill="#0079fe" stroke="none" transform="matrix(1 0 0 1 832 143 )" />
  </g>
</svg>