<?xml version="1.0" encoding="utf-8"?>
<svg version="1.1" xmlns:xlink="http://www.w3.org/1999/xlink" width="12px" height="12px" viewBox="248 725  12 12" xmlns="http://www.w3.org/2000/svg">
  <path d="M 254 725  C 257.36 725  260 727.64  260 731  C 260 734.36  257.36 737  254 737  C 250.64 737  248 734.36  248 731  C 248 727.64  250.64 725  254 725  Z " fill-rule="nonzero" fill="#ffffff" stroke="none" />
  <path d="M 254 725.5  C 257.08 725.5  259.5 727.92  259.5 731  C 259.5 734.08  257.08 736.5  254 736.5  C 250.92 736.5  248.5 734.08  248.5 731  C 248.5 727.92  250.92 725.5  254 725.5  Z " stroke-width="1" stroke="#797979" fill="none" />
  <path d="M 254 734  C 252.32 734  251 732.68  251 731  C 251 729.32  252.32 728  254 728  C 255.68 728  257 729.32  257 731  C 257 732.68  255.68 734  254 734  " fill-rule="nonzero" fill="#797979" stroke="none" />
</svg>