<?xml version="1.0" encoding="utf-8"?>
<svg version="1.1" xmlns:xlink="http://www.w3.org/1999/xlink" width="70px" height="25px" xmlns="http://www.w3.org/2000/svg">
  <g transform="matrix(1 0 0 1 -148 -1916 )">
    <path d="M 149 1924  A 7 7 0 0 1 156 1917 L 210 1917  A 7 7 0 0 1 217 1924 L 217 1933  A 7 7 0 0 1 210 1940 L 156 1940  A 7 7 0 0 1 149 1933 L 149 1924  Z " fill-rule="nonzero" fill="#0079fe" stroke="none" />
    <path d="M 148.5 1924  A 7.5 7.5 0 0 1 156 1916.5 L 210 1916.5  A 7.5 7.5 0 0 1 217.5 1924 L 217.5 1933  A 7.5 7.5 0 0 1 210 1940.5 L 156 1940.5  A 7.5 7.5 0 0 1 148.5 1933 L 148.5 1924  Z " stroke-width="1" stroke="#0079fe" fill="none" stroke-opacity="0.654901960784314" />
  </g>
</svg>