<?xml version="1.0" encoding="utf-8"?>
<svg version="1.1" xmlns:xlink="http://www.w3.org/1999/xlink" width="331px" height="104px" xmlns="http://www.w3.org/2000/svg">
  <g transform="matrix(1 0 0 1 -137 -1646 )">
    <path d="M 138 1650  A 3 3 0 0 1 141 1647 L 464 1647  A 3 3 0 0 1 467 1650 L 467 1746  A 3 3 0 0 1 464 1749 L 141 1749  A 3 3 0 0 1 138 1746 L 138 1650  Z " fill-rule="nonzero" fill="#000000" stroke="none" fill-opacity="0.0196078431372549" />
    <path d="M 137.5 1650  A 3.5 3.5 0 0 1 141 1646.5 L 464 1646.5  A 3.5 3.5 0 0 1 467.5 1650 L 467.5 1746  A 3.5 3.5 0 0 1 464 1749.5 L 141 1749.5  A 3.5 3.5 0 0 1 137.5 1746 L 137.5 1650  Z " stroke-width="1" stroke-dasharray="9,4" stroke="#d9d9d9" fill="none" stroke-dashoffset="0.5" />
  </g>
</svg>