<?xml version="1.0" encoding="utf-8"?>
<svg version="1.1" xmlns:xlink="http://www.w3.org/1999/xlink" width="80px" height="35px" xmlns="http://www.w3.org/2000/svg">
  <g transform="matrix(1 0 0 1 -1529 -134 )">
    <path d="M 1529.5 139  A 4.5 4.5 0 0 1 1534 134.5 L 1604 134.5  A 4.5 4.5 0 0 1 1608.5 139 L 1608.5 164  A 4.5 4.5 0 0 1 1604 168.5 L 1534 168.5  A 4.5 4.5 0 0 1 1529.5 164 L 1529.5 139  Z " fill-rule="nonzero" fill="#f0f7ff" stroke="none" />
    <path d="M 1529.5 139  A 4.5 4.5 0 0 1 1534 134.5 L 1604 134.5  A 4.5 4.5 0 0 1 1608.5 139 L 1608.5 164  A 4.5 4.5 0 0 1 1604 168.5 L 1534 168.5  A 4.5 4.5 0 0 1 1529.5 164 L 1529.5 139  Z " stroke-width="1" stroke="#409eff" fill="none" />
  </g>
</svg>