<?xml version="1.0" encoding="utf-8"?>
<svg version="1.1" xmlns:xlink="http://www.w3.org/1999/xlink" width="80px" height="30px" xmlns="http://www.w3.org/2000/svg">
  <g transform="matrix(1 0 0 1 -403 -1728 )">
    <path d="M 403.5 1731  A 2.5 2.5 0 0 1 406 1728.5 L 480 1728.5  A 2.5 2.5 0 0 1 482.5 1731 L 482.5 1755  A 2.5 2.5 0 0 1 480 1757.5 L 406 1757.5  A 2.5 2.5 0 0 1 403.5 1755 L 403.5 1731  Z " fill-rule="nonzero" fill="#f0f7ff" stroke="none" />
    <path d="M 403.5 1731  A 2.5 2.5 0 0 1 406 1728.5 L 480 1728.5  A 2.5 2.5 0 0 1 482.5 1731 L 482.5 1755  A 2.5 2.5 0 0 1 480 1757.5 L 406 1757.5  A 2.5 2.5 0 0 1 403.5 1755 L 403.5 1731  Z " stroke-width="1" stroke="#409eff" fill="none" />
  </g>
</svg>