<?xml version="1.0" encoding="utf-8"?>
<svg version="1.1" xmlns:xlink="http://www.w3.org/1999/xlink" width="17px" height="17px" xmlns="http://www.w3.org/2000/svg">
  <g transform="matrix(1 0 0 1 -957 -216 )">
    <path d="M 7.299375 17  L 8.14583333333333 14.2261666666667  L 7.33904166666667 12.75  L 8.48158333333333 12.75  L 9.66095833333333 12.75  L 8.85416666666667 14.2261666666667  L 9.700625 17  L 17 17  C 17 12.0416666666667  11.3333333333333 13.4583333333333  10.625 11.3333333333333  L 10.625 9.91666666666667  C 10.94375 9.75870833333333  11.855375 8.67354166666667  11.951 7.82566666666667  C 12.20175 7.80654166666667  12.5955833333333 7.57633333333333  12.71175 6.66754166666667  C 12.7740833333333 6.1795  12.5261666666667 5.905375  12.376 5.81895833333333  C 12.376 5.81895833333333  12.75 5.1085  12.75 4.25070833333333  C 12.75 2.530875  12.0749583333333 1.06320833333333  10.625 1.06320833333333  C 10.625 1.06320833333333  10.121375 0.000708333333332941  8.5 0.000708333333332941  C 5.49525 0.000708333333332941  4.25 1.92808333333333  4.25 4.25070833333333  C 4.25 5.03270833333333  4.624 5.81895833333333  4.624 5.81895833333333  C 4.47383333333333 5.905375  4.22591666666667 6.18020833333333  4.28825 6.66754166666667  C 4.40441666666667 7.57633333333333  4.79825 7.80654166666667  5.049 7.82566666666667  C 5.144625 8.67354166666667  6.05625 9.75870833333333  6.375 9.91666666666667  L 6.375 11.3333333333333  C 5.66666666666667 13.4583333333333  0 12.0416666666667  0 17  L 7.299375 17  Z " fill-rule="nonzero" fill="#999999" stroke="none" transform="matrix(1 0 0 1 957 216 )" />
  </g>
</svg>