<?xml version="1.0" encoding="utf-8"?>
<svg version="1.1" xmlns:xlink="http://www.w3.org/1999/xlink" width="23px" height="21px" xmlns="http://www.w3.org/2000/svg">
  <g transform="matrix(1 0 0 1 -1264 -214 )">
    <path d="M 14.7857142857143 16.447265625  C 14.8969494047619 16.447265625  14.995349702381 16.4016927083333  15.0809151785714 16.310546875  L 16.9547991071429 14.314453125  C 17.0403645833333 14.2233072916667  17.0831473214286 14.1184895833333  17.0831473214286 14  C 17.0831473214286 13.8815104166667  17.0403645833333 13.7766927083333  16.9547991071429 13.685546875  L 13.9642857142857 10.5  L 16.9547991071429 7.314453125  C 17.0403645833333 7.22330729166667  17.0831473214286 7.11848958333333  17.0831473214286 7  C 17.0831473214286 6.88151041666667  17.0403645833333 6.77669270833333  16.9547991071429 6.685546875  L 15.0809151785714 4.689453125  C 14.995349702381 4.59830729166667  14.8969494047619 4.552734375  14.7857142857143 4.552734375  C 14.6744791666667 4.552734375  14.5760788690476 4.59830729166667  14.4905133928571 4.689453125  L 11.5 7.875  L 8.50948660714286 4.689453125  C 8.42392113095238 4.59830729166667  8.32552083333333 4.552734375  8.21428571428572 4.552734375  C 8.10305059523809 4.552734375  8.00465029761905 4.59830729166667  7.91908482142857 4.689453125  L 6.04520089285714 6.685546875  C 5.95963541666667 6.77669270833333  5.91685267857143 6.88151041666667  5.91685267857143 7  C 5.91685267857143 7.11848958333333  5.95963541666667 7.22330729166667  6.04520089285714 7.314453125  L 9.03571428571428 10.5  L 6.04520089285714 13.685546875  C 5.95963541666667 13.7766927083333  5.91685267857143 13.8815104166667  5.91685267857143 14  C 5.91685267857143 14.1184895833333  5.95963541666667 14.2233072916667  6.04520089285714 14.314453125  L 7.91908482142857 16.310546875  C 8.00465029761905 16.4016927083333  8.10305059523809 16.447265625  8.21428571428572 16.447265625  C 8.32552083333333 16.447265625  8.42392113095238 16.4016927083333  8.50948660714286 16.310546875  L 11.5 13.125  L 14.4905133928571 16.310546875  C 14.5760788690476 16.4016927083333  14.6744791666667 16.447265625  14.7857142857143 16.447265625  Z M 22.3967633928571 0.642578125000001  C 22.7989211309524 1.07096354166667  23 1.5859375  23 2.1875  L 23 18.8125  C 23 19.4140625  22.7989211309524 19.9290364583333  22.3967633928571 20.357421875  C 21.9946056547619 20.7858072916667  21.5111607142857 21  20.9464285714286 21  L 2.05357142857143 21  C 1.48883928571429 21  1.0053943452381 20.7858072916667  0.603236607142857 20.357421875  C 0.201078869047619 19.9290364583333  0 19.4140625  0 18.8125  L 0 2.1875  C 0 1.5859375  0.201078869047619 1.07096354166667  0.603236607142857 0.642578125000001  C 1.0053943452381 0.214192708333331  1.48883928571429 0  2.05357142857143 0  L 20.9464285714286 0  C 21.5111607142857 0  21.9946056547619 0.214192708333331  22.3967633928571 0.642578125000001  Z " fill-rule="nonzero" fill="#aaaaaa" stroke="none" transform="matrix(1 0 0 1 1264 214 )" />
  </g>
</svg>