<?xml version="1.0" encoding="utf-8"?>
<svg version="1.1" xmlns:xlink="http://www.w3.org/1999/xlink" width="14px" height="14px" xmlns="http://www.w3.org/2000/svg">
  <g transform="matrix(1 0 0 1 -464 -37 )">
    <path d="M 471 38  C 474.36 38  477 40.64  477 44  C 477 47.36  474.36 50  471 50  C 467.64 50  465 47.36  465 44  C 465 40.64  467.64 38  471 38  Z " fill-rule="nonzero" fill="#0d0d51" stroke="none" />
    <path d="M 471 38  C 474.36 38  477 40.64  477 44  C 477 47.36  474.36 50  471 50  C 467.64 50  465 47.36  465 44  C 465 40.64  467.64 38  471 38  Z " stroke-width="2" stroke="#ffffff" fill="none" />
  </g>
</svg>