<?xml version="1.0" encoding="utf-8"?>
<svg version="1.1" xmlns:xlink="http://www.w3.org/1999/xlink" width="47px" height="35px" xmlns="http://www.w3.org/2000/svg">
  <g transform="matrix(1 0 0 1 -1277 -309 )">
    <path d="M 1277 309  L 1324 309  L 1324 344  L 1277 344  L 1277 309  " fill-rule="nonzero" fill="#cccccc" stroke="none" />
    <path d="M 1279 311  L 1322 311  L 1322 342  L 1279 342  L 1279 311  " fill-rule="nonzero" fill="#ffffff" stroke="none" />
    <path d="M 1304.065 319.5  C 1302.595 319.5  1301.44 318.345  1301.44 316.875  C 1301.44 315.405  1302.595 314.25  1304.065 314.25  C 1305.535 314.25  1306.69 315.405  1306.69 316.875  C 1306.69 318.345  1305.535 319.5  1304.065 319.5  " fill-rule="nonzero" fill="#cccccc" stroke="none" />
    <path d="M 1280 341  L 1280 325.05  L 1290.25 317.8  L 1304.6 328.042553191489  L 1312.8 322.15  L 1321 328.042553191489  L 1321 341  L 1280 341  " fill-rule="nonzero" fill="#169bd5" stroke="none" />
  </g>
</svg>