<?xml version="1.0" encoding="utf-8"?>
<svg version="1.1" xmlns:xlink="http://www.w3.org/1999/xlink" width="80px" height="35px" xmlns="http://www.w3.org/2000/svg">
  <g transform="matrix(1 0 0 1 -393 -493 )">
    <path d="M 394 498  A 4 4 0 0 1 398 494 L 468 494  A 4 4 0 0 1 472 498 L 472 523  A 4 4 0 0 1 468 527 L 398 527  A 4 4 0 0 1 394 523 L 394 498  Z " fill-rule="nonzero" fill="#f0f7ff" stroke="none" />
    <path d="M 393.5 498  A 4.5 4.5 0 0 1 398 493.5 L 468 493.5  A 4.5 4.5 0 0 1 472.5 498 L 472.5 523  A 4.5 4.5 0 0 1 468 527.5 L 398 527.5  A 4.5 4.5 0 0 1 393.5 523 L 393.5 498  Z " stroke-width="1" stroke="#7abbff" fill="none" stroke-opacity="0.996078431372549" />
  </g>
</svg>