<?xml version="1.0" encoding="utf-8"?>
<svg version="1.1" xmlns:xlink="http://www.w3.org/1999/xlink" width="47px" height="35px" xmlns="http://www.w3.org/2000/svg">
  <g transform="matrix(1 0 0 1 -1711 -309 )">
    <path d="M 1711 309  L 1758 309  L 1758 344  L 1711 344  L 1711 309  " fill-rule="nonzero" fill="#cccccc" stroke="none" />
    <path d="M 1713 311  L 1756 311  L 1756 342  L 1713 342  L 1713 311  " fill-rule="nonzero" fill="#ffffff" stroke="none" />
    <path d="M 1738.065 319.5  C 1736.595 319.5  1735.44 318.345  1735.44 316.875  C 1735.44 315.405  1736.595 314.25  1738.065 314.25  C 1739.535 314.25  1740.69 315.405  1740.69 316.875  C 1740.69 318.345  1739.535 319.5  1738.065 319.5  " fill-rule="nonzero" fill="#cccccc" stroke="none" />
    <path d="M 1714 341  L 1714 325.05  L 1724.25 317.8  L 1738.6 328.042553191489  L 1746.8 322.15  L 1755 328.042553191489  L 1755 341  L 1714 341  " fill-rule="nonzero" fill="#169bd5" stroke="none" />
  </g>
</svg>