<?xml version="1.0" encoding="utf-8"?>
<svg version="1.1" xmlns:xlink="http://www.w3.org/1999/xlink" width="80px" height="30px" xmlns="http://www.w3.org/2000/svg">
  <g transform="matrix(1 0 0 1 -2216 -1068 )">
    <path d="M 2216.5 1071  A 2.5 2.5 0 0 1 2219 1068.5 L 2293 1068.5  A 2.5 2.5 0 0 1 2295.5 1071 L 2295.5 1095  A 2.5 2.5 0 0 1 2293 1097.5 L 2219 1097.5  A 2.5 2.5 0 0 1 2216.5 1095 L 2216.5 1071  Z " fill-rule="nonzero" fill="#f9f9f9" stroke="none" />
    <path d="M 2216.5 1071  A 2.5 2.5 0 0 1 2219 1068.5 L 2293 1068.5  A 2.5 2.5 0 0 1 2295.5 1071 L 2295.5 1095  A 2.5 2.5 0 0 1 2293 1097.5 L 2219 1097.5  A 2.5 2.5 0 0 1 2216.5 1095 L 2216.5 1071  Z " stroke-width="1" stroke="#e4e4e4" fill="none" />
  </g>
</svg>