<?xml version="1.0" encoding="utf-8"?>
<svg version="1.1" xmlns:xlink="http://www.w3.org/1999/xlink" width="14px" height="14px" xmlns="http://www.w3.org/2000/svg">
  <g transform="matrix(1 0 0 1 -383 -157 )">
    <path d="M 390 158  C 393.36 158  396 160.64  396 164  C 396 167.36  393.36 170  390 170  C 386.64 170  384 167.36  384 164  C 384 160.64  386.64 158  390 158  Z " fill-rule="nonzero" fill="#0d0d51" stroke="none" />
    <path d="M 390 158  C 393.36 158  396 160.64  396 164  C 396 167.36  393.36 170  390 170  C 386.64 170  384 167.36  384 164  C 384 160.64  386.64 158  390 158  Z " stroke-width="2" stroke="#ffffff" fill="none" />
  </g>
</svg>