<?xml version="1.0" encoding="utf-8"?>
<svg version="1.1" xmlns:xlink="http://www.w3.org/1999/xlink" width="70px" height="25px" xmlns="http://www.w3.org/2000/svg">
  <g transform="matrix(1 0 0 1 -163 -784 )">
    <path d="M 164 792  A 7 7 0 0 1 171 785 L 225 785  A 7 7 0 0 1 232 792 L 232 801  A 7 7 0 0 1 225 808 L 171 808  A 7 7 0 0 1 164 801 L 164 792  Z " fill-rule="nonzero" fill="#81d3f8" stroke="none" fill-opacity="0.168627450980392" />
    <path d="M 163.5 792  A 7.5 7.5 0 0 1 171 784.5 L 225 784.5  A 7.5 7.5 0 0 1 232.5 792 L 232.5 801  A 7.5 7.5 0 0 1 225 808.5 L 171 808.5  A 7.5 7.5 0 0 1 163.5 801 L 163.5 792  Z " stroke-width="1" stroke="#0079fe" fill="none" stroke-opacity="0.654901960784314" />
  </g>
</svg>