<?xml version="1.0" encoding="utf-8"?>
<svg version="1.1" xmlns:xlink="http://www.w3.org/1999/xlink" width="10px" height="10px" xmlns="http://www.w3.org/2000/svg">
  <g transform="matrix(1 0 0 1 -55 -789 )">
    <path d="M 60 789  C 62.8 789  65 791.2  65 794  C 65 796.8  62.8 799  60 799  C 57.2 799  55 796.8  55 794  C 55 791.2  57.2 789  60 789  Z " fill-rule="nonzero" fill="#d7d7d7" stroke="none" />
    <path d="M 60 789.5  C 62.52 789.5  64.5 791.48  64.5 794  C 64.5 796.52  62.52 798.5  60 798.5  C 57.48 798.5  55.5 796.52  55.5 794  C 55.5 791.48  57.48 789.5  60 789.5  Z " stroke-width="1" stroke="#d7d7d7" fill="none" />
  </g>
</svg>