<?xml version="1.0" encoding="utf-8"?>
<svg version="1.1" xmlns:xlink="http://www.w3.org/1999/xlink" width="12px" height="12px" viewBox="166 778  12 12" xmlns="http://www.w3.org/2000/svg">
  <path d="M 172 778  C 175.36 778  178 780.64  178 784  C 178 787.36  175.36 790  172 790  C 168.64 790  166 787.36  166 784  C 166 780.64  168.64 778  172 778  Z " fill-rule="nonzero" fill="#ffffff" stroke="none" />
  <path d="M 172 778.5  C 175.08 778.5  177.5 780.92  177.5 784  C 177.5 787.08  175.08 789.5  172 789.5  C 168.92 789.5  166.5 787.08  166.5 784  C 166.5 780.92  168.92 778.5  172 778.5  Z " stroke-width="1" stroke="#797979" fill="none" />
  <path d="M 172 787  C 170.32 787  169 785.68  169 784  C 169 782.32  170.32 781  172 781  C 173.68 781  175 782.32  175 784  C 175 785.68  173.68 787  172 787  " fill-rule="nonzero" fill="#797979" stroke="none" />
</svg>