<?xml version="1.0" encoding="utf-8"?>
<svg version="1.1" xmlns:xlink="http://www.w3.org/1999/xlink" width="12px" height="12px" viewBox="166 929  12 12" xmlns="http://www.w3.org/2000/svg">
  <path d="M 172 929  C 175.36 929  178 931.64  178 935  C 178 938.36  175.36 941  172 941  C 168.64 941  166 938.36  166 935  C 166 931.64  168.64 929  172 929  Z " fill-rule="nonzero" fill="#f0f0f0" stroke="none" />
  <path d="M 172 929.5  C 175.08 929.5  177.5 931.92  177.5 935  C 177.5 938.08  175.08 940.5  172 940.5  C 168.92 940.5  166.5 938.08  166.5 935  C 166.5 931.92  168.92 929.5  172 929.5  Z " stroke-width="1" stroke="#797979" fill="none" />
  <path d="M 172 938  C 170.32 938  169 936.68  169 935  C 169 933.32  170.32 932  172 932  C 173.68 932  175 933.32  175 935  C 175 936.68  173.68 938  172 938  " fill-rule="nonzero" fill="#797979" stroke="none" />
</svg>