<?xml version="1.0" encoding="utf-8"?>
<svg version="1.1" xmlns:xlink="http://www.w3.org/1999/xlink" width="12px" height="12px" viewBox="785 728  12 12" xmlns="http://www.w3.org/2000/svg">
  <path d="M 791 728  C 794.36 728  797 730.64  797 734  C 797 737.36  794.36 740  791 740  C 787.64 740  785 737.36  785 734  C 785 730.64  787.64 728  791 728  Z " fill-rule="nonzero" fill="#f0f0f0" stroke="none" />
  <path d="M 791 728.5  C 794.08 728.5  796.5 730.92  796.5 734  C 796.5 737.08  794.08 739.5  791 739.5  C 787.92 739.5  785.5 737.08  785.5 734  C 785.5 730.92  787.92 728.5  791 728.5  Z " stroke-width="1" stroke="#797979" fill="none" />
  <path d="M 791 737  C 789.32 737  788 735.68  788 734  C 788 732.32  789.32 731  791 731  C 792.68 731  794 732.32  794 734  C 794 735.68  792.68 737  791 737  " fill-rule="nonzero" fill="#797979" stroke="none" />
</svg>