<?xml version="1.0" encoding="utf-8"?>
<svg version="1.1" xmlns:xlink="http://www.w3.org/1999/xlink" width="12px" height="12px" viewBox="248 778  12 12" xmlns="http://www.w3.org/2000/svg">
  <path d="M 254 778  C 257.36 778  260 780.64  260 784  C 260 787.36  257.36 790  254 790  C 250.64 790  248 787.36  248 784  C 248 780.64  250.64 778  254 778  Z " fill-rule="nonzero" fill="#ffffff" stroke="none" />
  <path d="M 254 778.5  C 257.08 778.5  259.5 780.92  259.5 784  C 259.5 787.08  257.08 789.5  254 789.5  C 250.92 789.5  248.5 787.08  248.5 784  C 248.5 780.92  250.92 778.5  254 778.5  Z " stroke-width="1" stroke="#797979" fill="none" />
  <path d="M 254 787  C 252.32 787  251 785.68  251 784  C 251 782.32  252.32 781  254 781  C 255.68 781  257 782.32  257 784  C 257 785.68  255.68 787  254 787  " fill-rule="nonzero" fill="#797979" stroke="none" />
</svg>