<?xml version="1.0" encoding="utf-8"?>
<svg version="1.1" xmlns:xlink="http://www.w3.org/1999/xlink" width="12px" height="12px" viewBox="177 2496  12 12" xmlns="http://www.w3.org/2000/svg">
  <path d="M 183 2496  C 186.36 2496  189 2498.64  189 2502  C 189 2505.36  186.36 2508  183 2508  C 179.64 2508  177 2505.36  177 2502  C 177 2498.64  179.64 2496  183 2496  Z " fill-rule="nonzero" fill="#f0f0f0" stroke="none" />
  <path d="M 183 2496.5  C 186.08 2496.5  188.5 2498.92  188.5 2502  C 188.5 2505.08  186.08 2507.5  183 2507.5  C 179.92 2507.5  177.5 2505.08  177.5 2502  C 177.5 2498.92  179.92 2496.5  183 2496.5  Z " stroke-width="1" stroke="#797979" fill="none" />
  <path d="M 183 2505  C 181.32 2505  180 2503.68  180 2502  C 180 2500.32  181.32 2499  183 2499  C 184.68 2499  186 2500.32  186 2502  C 186 2503.68  184.68 2505  183 2505  " fill-rule="nonzero" fill="#797979" stroke="none" />
</svg>