<?xml version="1.0" encoding="utf-8"?>
<svg version="1.1" xmlns:xlink="http://www.w3.org/1999/xlink" width="11px" height="9px" xmlns="http://www.w3.org/2000/svg">
  <g transform="matrix(1 0 0 1 -3319 -631 )">
    <path d="M 10.9899649122807 0.658080000000004  L 8.24189473684212 0.658080000000004  L 8.24189473684212 0.0187200000000039  L 7.55642105263157 0.0187200000000039  L 7.55642105263157 0.658080000000004  L 3.44357894736841 0.658080000000004  L 3.44357894736841 0.0187200000000039  L 2.7581052631579 0.0187200000000039  L 2.7581052631579 0.658080000000004  L 0.0100350877193023 0.658080000000004  L 0.0100350877193023 9  L 10.9899649122807 9  L 10.9899649122807 0.658080000000004  Z M 10.3044912280702 3.86064  L 10.3044912280702 8.40528  L 0.695508771929813 8.40528  L 0.695508771929813 3.86064  L 10.3044912280702 3.86064  Z M 10.2983157894737 3.22128000000001  L 10.3044912280702 3.22128000000001  L 0.695508771929813 3.22128000000001  L 0.695508771929813 1.23408  L 2.75192982456139 1.23408  L 2.75192982456139 1.93679999999999  L 3.43740350877193 1.93679999999999  L 3.43740350877193 1.23408  L 7.55642105263157 1.23408  L 7.55642105263157 1.93679999999999  L 8.24189473684212 1.93679999999999  L 8.24189473684212 1.23408  L 10.2983157894737 1.23408  L 10.2983157894737 3.22128000000001  Z " fill-rule="nonzero" fill="#d7d7d7" stroke="none" transform="matrix(1 0 0 1 3319 631 )" />
  </g>
</svg>