<?xml version="1.0" encoding="utf-8"?>
<svg version="1.1" xmlns:xlink="http://www.w3.org/1999/xlink" width="9px" height="9px" xmlns="http://www.w3.org/2000/svg">
  <g transform="matrix(1 0 0 1 -4202 -1510 )">
    <path d="M 8.99178947368421 0.658080000000004  L 6.74336842105264 0.658080000000004  L 6.74336842105264 0.0187200000000039  L 6.18252631578947 0.0187200000000039  L 6.18252631578947 0.658080000000004  L 2.81747368421052 0.658080000000004  L 2.81747368421052 0.0187200000000039  L 2.25663157894737 0.0187200000000039  L 2.25663157894737 0.658080000000004  L 0.00821052631579278 0.658080000000004  L 0.00821052631579278 8.97551999999999  L 8.99178947368421 8.97551999999999  L 8.99178947368421 0.658080000000004  Z M 8.43094736842106 3.86064  L 8.43094736842106 8.40528  L 0.569052631578938 8.40528  L 0.569052631578938 3.86064  L 8.43094736842106 3.86064  Z M 8.42589473684211 3.22128000000001  L 8.43094736842106 3.22128000000001  L 0.569052631578938 3.22128000000001  L 0.569052631578938 1.23408  L 2.25157894736841 1.23408  L 2.25157894736841 1.93679999999999  L 2.81242105263158 1.93679999999999  L 2.81242105263158 1.23408  L 6.18252631578947 1.23408  L 6.18252631578947 1.93679999999999  L 6.74336842105264 1.93679999999999  L 6.74336842105264 1.23408  L 8.42589473684211 1.23408  L 8.42589473684211 3.22128000000001  Z " fill-rule="nonzero" fill="#d7d7d7" stroke="none" transform="matrix(1 0 0 1 4202 1510 )" />
  </g>
</svg>