<?xml version="1.0" encoding="utf-8"?>
<svg version="1.1" xmlns:xlink="http://www.w3.org/1999/xlink" width="236px" height="18px" xmlns="http://www.w3.org/2000/svg">
  <defs>
    <mask fill="white" id="clip155">
      <path d="M 9 18  C 3.96000000000004 18  0 14.04  0 9  C 0 3.96000000000004  3.96000000000004 0  9 0  L 227 0  C 232.04 0  236 3.96000000000004  236 9  C 236 14.04  232.04 18  227 18  L 105.843373493976 18  L 9 18  Z " fill-rule="evenodd" />
    </mask>
  </defs>
  <g transform="matrix(1 0 0 1 -938 -5147 )">
    <path d="M 9 18  C 3.96000000000004 18  0 14.04  0 9  C 0 3.96000000000004  3.96000000000004 0  9 0  L 227 0  C 232.04 0  236 3.96000000000004  236 9  C 236 14.04  232.04 18  227 18  L 105.843373493976 18  L 9 18  Z " fill-rule="nonzero" fill="#ffffff" stroke="none" transform="matrix(1 0 0 1 938 5147 )" />
    <path d="M 9 18  C 3.96000000000004 18  0 14.04  0 9  C 0 3.96000000000004  3.96000000000004 0  9 0  L 227 0  C 232.04 0  236 3.96000000000004  236 9  C 236 14.04  232.04 18  227 18  L 105.843373493976 18  L 9 18  Z " stroke-width="2" stroke="#d7d7d7" fill="none" transform="matrix(1 0 0 1 938 5147 )" mask="url(#clip155)" />
  </g>
</svg>