<?xml version="1.0" encoding="utf-8"?>
<svg version="1.1" xmlns:xlink="http://www.w3.org/1999/xlink" width="12px" height="12px" viewBox="996 729  12 12" xmlns="http://www.w3.org/2000/svg">
  <path d="M 1002 729  C 1005.36 729  1008 731.64  1008 735  C 1008 738.36  1005.36 741  1002 741  C 998.64 741  996 738.36  996 735  C 996 731.64  998.64 729  1002 729  Z " fill-rule="nonzero" fill="#f0f0f0" stroke="none" />
  <path d="M 1002 729.5  C 1005.08 729.5  1007.5 731.92  1007.5 735  C 1007.5 738.08  1005.08 740.5  1002 740.5  C 998.92 740.5  996.5 738.08  996.5 735  C 996.5 731.92  998.92 729.5  1002 729.5  Z " stroke-width="1" stroke="#797979" fill="none" />
  <path d="M 1002 738  C 1000.32 738  999 736.68  999 735  C 999 733.32  1000.32 732  1002 732  C 1003.68 732  1005 733.32  1005 735  C 1005 736.68  1003.68 738  1002 738  " fill-rule="nonzero" fill="#797979" stroke="none" />
</svg>