<?xml version="1.0" encoding="utf-8"?>
<svg version="1.1" xmlns:xlink="http://www.w3.org/1999/xlink" width="12px" height="12px" viewBox="996 782  12 12" xmlns="http://www.w3.org/2000/svg">
  <path d="M 1002 782  C 1005.36 782  1008 784.64  1008 788  C 1008 791.36  1005.36 794  1002 794  C 998.64 794  996 791.36  996 788  C 996 784.64  998.64 782  1002 782  Z " fill-rule="nonzero" fill="#ffffff" stroke="none" />
  <path d="M 1002 782.5  C 1005.08 782.5  1007.5 784.92  1007.5 788  C 1007.5 791.08  1005.08 793.5  1002 793.5  C 998.92 793.5  996.5 791.08  996.5 788  C 996.5 784.92  998.92 782.5  1002 782.5  Z " stroke-width="1" stroke="#797979" fill="none" />
  <path d="M 1002 791  C 1000.32 791  999 789.68  999 788  C 999 786.32  1000.32 785  1002 785  C 1003.68 785  1005 786.32  1005 788  C 1005 789.68  1003.68 791  1002 791  " fill-rule="nonzero" fill="#797979" stroke="none" />
</svg>