<?xml version="1.0" encoding="utf-8"?>
<svg version="1.1" xmlns:xlink="http://www.w3.org/1999/xlink" width="12px" height="12px" viewBox="996 933  12 12" xmlns="http://www.w3.org/2000/svg">
  <path d="M 1002 933  C 1005.36 933  1008 935.64  1008 939  C 1008 942.36  1005.36 945  1002 945  C 998.64 945  996 942.36  996 939  C 996 935.64  998.64 933  1002 933  Z " fill-rule="nonzero" fill="#ffffff" stroke="none" />
  <path d="M 1002 933.5  C 1005.08 933.5  1007.5 935.92  1007.5 939  C 1007.5 942.08  1005.08 944.5  1002 944.5  C 998.92 944.5  996.5 942.08  996.5 939  C 996.5 935.92  998.92 933.5  1002 933.5  Z " stroke-width="1" stroke="#797979" fill="none" />
  <path d="M 1002 942  C 1000.32 942  999 940.68  999 939  C 999 937.32  1000.32 936  1002 936  C 1003.68 936  1005 937.32  1005 939  C 1005 940.68  1003.68 942  1002 942  " fill-rule="nonzero" fill="#797979" stroke="none" />
</svg>