<?xml version="1.0" encoding="utf-8"?>
<svg version="1.1" xmlns:xlink="http://www.w3.org/1999/xlink" width="12px" height="12px" viewBox="925 2587  12 12" xmlns="http://www.w3.org/2000/svg">
  <path d="M 931 2587  C 934.36 2587  937 2589.64  937 2593  C 937 2596.36  934.36 2599  931 2599  C 927.64 2599  925 2596.36  925 2593  C 925 2589.64  927.64 2587  931 2587  Z " fill-rule="nonzero" fill="#ffffff" stroke="none" />
  <path d="M 931 2587.5  C 934.08 2587.5  936.5 2589.92  936.5 2593  C 936.5 2596.08  934.08 2598.5  931 2598.5  C 927.92 2598.5  925.5 2596.08  925.5 2593  C 925.5 2589.92  927.92 2587.5  931 2587.5  Z " stroke-width="1" stroke="#797979" fill="none" />
  <path d="M 931 2596  C 929.32 2596  928 2594.68  928 2593  C 928 2591.32  929.32 2590  931 2590  C 932.68 2590  934 2591.32  934 2593  C 934 2594.68  932.68 2596  931 2596  " fill-rule="nonzero" fill="#797979" stroke="none" />
</svg>