<?xml version="1.0" encoding="utf-8"?>
<svg version="1.1" xmlns:xlink="http://www.w3.org/1999/xlink" width="12px" height="12px" viewBox="1007 2587  12 12" xmlns="http://www.w3.org/2000/svg">
  <path d="M 1013 2587  C 1016.36 2587  1019 2589.64  1019 2593  C 1019 2596.36  1016.36 2599  1013 2599  C 1009.64 2599  1007 2596.36  1007 2593  C 1007 2589.64  1009.64 2587  1013 2587  Z " fill-rule="nonzero" fill="#f0f0f0" stroke="none" />
  <path d="M 1013 2587.5  C 1016.08 2587.5  1018.5 2589.92  1018.5 2593  C 1018.5 2596.08  1016.08 2598.5  1013 2598.5  C 1009.92 2598.5  1007.5 2596.08  1007.5 2593  C 1007.5 2589.92  1009.92 2587.5  1013 2587.5  Z " stroke-width="1" stroke="#797979" fill="none" />
  <path d="M 1013 2596  C 1011.32 2596  1010 2594.68  1010 2593  C 1010 2591.32  1011.32 2590  1013 2590  C 1014.68 2590  1016 2591.32  1016 2593  C 1016 2594.68  1014.68 2596  1013 2596  " fill-rule="nonzero" fill="#797979" stroke="none" />
</svg>