<?xml version="1.0" encoding="utf-8"?>
<svg version="1.1" xmlns:xlink="http://www.w3.org/1999/xlink" width="12px" height="12px" viewBox="925 2632  12 12" xmlns="http://www.w3.org/2000/svg">
  <path d="M 931 2632  C 934.36 2632  937 2634.64  937 2638  C 937 2641.36  934.36 2644  931 2644  C 927.64 2644  925 2641.36  925 2638  C 925 2634.64  927.64 2632  931 2632  Z " fill-rule="nonzero" fill="#f0f0f0" stroke="none" />
  <path d="M 931 2632.5  C 934.08 2632.5  936.5 2634.92  936.5 2638  C 936.5 2641.08  934.08 2643.5  931 2643.5  C 927.92 2643.5  925.5 2641.08  925.5 2638  C 925.5 2634.92  927.92 2632.5  931 2632.5  Z " stroke-width="1" stroke="#797979" fill="none" />
  <path d="M 931 2641  C 929.32 2641  928 2639.68  928 2638  C 928 2636.32  929.32 2635  931 2635  C 932.68 2635  934 2636.32  934 2638  C 934 2639.68  932.68 2641  931 2641  " fill-rule="nonzero" fill="#797979" stroke="none" />
</svg>