<?xml version="1.0" encoding="utf-8"?>
<svg version="1.1" xmlns:xlink="http://www.w3.org/1999/xlink" width="232px" height="50px" xmlns="http://www.w3.org/2000/svg">
  <g transform="matrix(1 0 0 1 -618 -607 )">
    <path d="M 618.5 642.026036445757  C 618.5 642.026036445757  618.5 612  618.5 612  C 618.5 609.514718625761  620.514718625761 607.5  623 607.5  C 623 607.5  845 607.5  845 607.5  C 847.485281374239 607.5  849.5 609.514718625761  849.5 612  C 849.5 612  849.5 642.026036445757  849.5 642.026036445757  C 849.5 644.511317819996  847.485281374239 646.526036445757  845 646.526036445757  C 845 646.526036445757  673.047528043717 646.526036445757  673.047528043717 646.526036445757  C 673.047528043717 646.526036445757  663.131284206326 655.949028495274  663.131284206326 655.949028495274  C 663.131284206326 655.949028495274  653.450368577843 646.526036445757  653.450368577843 646.526036445757  C 653.450368577843 646.526036445757  623 646.526036445757  623 646.526036445757  C 620.514718625761 646.526036445757  618.5 644.511317819996  618.5 642.026036445757  Z " fill-rule="nonzero" fill="#ffffff" stroke="none" fill-opacity="0.8" />
    <path d="M 618 642.026036445757  C 618 642.026036445757  618 612  618 612  C 618 609.238576250846  620.238576250846 607  623 607  C 623 607  845 607  845 607  C 847.761423749154 607  850 609.238576250846  850 612  C 850 612  850 642.026036445757  850 642.026036445757  C 850 644.787460194911  847.761423749154 647.026036445757  845 647.026036445757  C 845 647.026036445757  673.247204968944 647.026036445757  673.247204968944 647.026036445757  C 673.247204968944 647.026036445757  663.127122153209 656.642728156539  663.127122153209 656.642728156539  C 663.127122153209 656.642728156539  653.247204968944 647.026036445757  653.247204968944 647.026036445757  C 653.247204968944 647.026036445757  623 647.026036445757  623 647.026036445757  C 620.238576250846 647.026036445757  618 644.787460194911  618 642.026036445757  Z M 619 642.026036445757  C 619 644.23517544508  620.790861000677 646.026036445757  623 646.026036445757  C 623 646.026036445757  653.653532186741 646.026036445757  653.653532186741 646.026036445757  C 653.653532186741 646.026036445757  663.135446259443 655.255328834009  663.135446259443 655.255328834009  C 663.135446259443 655.255328834009  672.847851118489 646.026036445757  672.847851118489 646.026036445757  C 672.847851118489 646.026036445757  845 646.026036445757  845 646.026036445757  C 847.209138999323 646.026036445757  849 644.23517544508  849 642.026036445757  C 849 642.026036445757  849 612  849 612  C 849 609.790861000677  847.209138999323 608  845 608  C 845 608  623 608  623 608  C 620.790861000677 608  619 609.790861000677  619 612  C 619 612  619 642.026036445757  619 642.026036445757  Z " fill-rule="nonzero" fill="#e4e4e4" stroke="none" />
  </g>
</svg>