<?xml version="1.0" encoding="utf-8"?>
<svg version="1.1" xmlns:xlink="http://www.w3.org/1999/xlink" width="232px" height="50px" xmlns="http://www.w3.org/2000/svg">
  <defs>
    <mask fill="white" id="clip4">
      <path d="M 227 10  C 229.761423749154 9.97396355424303  232 12.2125398050891  232 14.973963554243  L 232 45  C 232 47.761423749154  229.761423749154 50  227 50  L 5 50  C 2.23857625084602 50  0 47.761423749154  0 45  L 0 14.973963554243  C 0 12.2125398050891  2.23857625084602 9.97396355424303  5 10  L 35.232298136646 10  L 45.857225672878 0.440605176794492  L 56.7463354037266 10  L 227 10  Z " fill-rule="evenodd" />
    </mask>
  </defs>
  <g transform="matrix(1 0 0 1 -618 -667 )">
    <path d="M 227 10  C 229.761423749154 9.97396355424303  232 12.2125398050891  232 14.973963554243  L 232 45  C 232 47.761423749154  229.761423749154 50  227 50  L 5 50  C 2.23857625084602 50  0 47.761423749154  0 45  L 0 14.973963554243  C 0 12.2125398050891  2.23857625084602 9.97396355424303  5 10  L 35.232298136646 10  L 45.857225672878 0.440605176794492  L 56.7463354037266 10  L 227 10  Z " fill-rule="nonzero" fill="#ffffff" stroke="none" fill-opacity="0.8" transform="matrix(1 0 0 1 618 667 )" />
    <path d="M 227 10  C 229.761423749154 9.97396355424303  232 12.2125398050891  232 14.973963554243  L 232 45  C 232 47.761423749154  229.761423749154 50  227 50  L 5 50  C 2.23857625084602 50  0 47.761423749154  0 45  L 0 14.973963554243  C 0 12.2125398050891  2.23857625084602 9.97396355424303  5 10  L 35.232298136646 10  L 45.857225672878 0.440605176794492  L 56.7463354037266 10  L 227 10  Z " stroke-width="2" stroke="#e4e4e4" fill="none" transform="matrix(1 0 0 1 618 667 )" mask="url(#clip4)" />
  </g>
</svg>