<?xml version="1.0" encoding="utf-8"?>
<svg version="1.1" xmlns:xlink="http://www.w3.org/1999/xlink" width="232px" height="50px" xmlns="http://www.w3.org/2000/svg">
  <g transform="matrix(1 0 0 1 -618 -737 )">
    <path d="M 618.5 772.026036445757  C 618.5 772.026036445757  618.5 742  618.5 742  C 618.5 739.514718625761  620.514718625761 737.5  623 737.5  C 623 737.5  845 737.5  845 737.5  C 847.485281374239 737.5  849.5 739.514718625761  849.5 742  C 849.5 742  849.5 772.026036445757  849.5 772.026036445757  C 849.5 774.511317819996  847.485281374239 776.526036445757  845 776.526036445757  C 845 776.526036445757  744.153127095833 776.526036445757  744.153127095833 776.526036445757  C 744.153127095833 776.526036445757  734.731187881501 785.948913099441  734.731187881501 785.948913099441  C 734.731187881501 785.948913099441  724.556207620669 776.526036445757  724.556207620669 776.526036445757  C 724.556207620669 776.526036445757  623 776.526036445757  623 776.526036445757  C 620.514718625761 776.526036445757  618.5 774.511317819996  618.5 772.026036445757  Z " fill-rule="nonzero" fill="#ffffff" stroke="none" fill-opacity="0.8" />
    <path d="M 618 772.026036445757  C 618 772.026036445757  618 742  618 742  C 618 739.238576250846  620.238576250846 737  623 737  C 623 737  845 737  845 737  C 847.761423749154 737  850 739.238576250846  850 742  C 850 742  850 772.026036445757  850 772.026036445757  C 850 774.787460194911  847.761423749154 777.026036445757  845 777.026036445757  C 845 777.026036445757  744.360248447205 777.026036445757  744.360248447205 777.026036445757  C 744.360248447205 777.026036445757  734.744513457557 786.642728156539  734.744513457557 786.642728156539  C 734.744513457557 786.642728156539  724.360248447205 777.026036445757  724.360248447205 777.026036445757  C 724.360248447205 777.026036445757  623 777.026036445757  623 777.026036445757  C 620.238576250846 777.026036445757  618 774.787460194911  618 772.026036445757  Z M 619 772.026036445757  C 619 774.23517544508  620.790861000677 776.026036445757  623 776.026036445757  C 623 776.026036445757  724.752166794133 776.026036445757  724.752166794133 776.026036445757  C 724.752166794133 776.026036445757  734.717862305444 785.255098042342  734.717862305444 785.255098042342  C 734.717862305444 785.255098042342  743.946005744461 776.026036445757  743.946005744461 776.026036445757  C 743.946005744461 776.026036445757  845 776.026036445757  845 776.026036445757  C 847.209138999323 776.026036445757  849 774.23517544508  849 772.026036445757  C 849 772.026036445757  849 742  849 742  C 849 739.790861000677  847.209138999323 738  845 738  C 845 738  623 738  623 738  C 620.790861000677 738  619 739.790861000677  619 742  C 619 742  619 772.026036445757  619 772.026036445757  Z " fill-rule="nonzero" fill="#e4e4e4" stroke="none" />
  </g>
</svg>