<?xml version="1.0" encoding="utf-8"?>
<svg version="1.1" xmlns:xlink="http://www.w3.org/1999/xlink" width="80px" height="35px" xmlns="http://www.w3.org/2000/svg">
  <g transform="matrix(1 0 0 1 -1290 -133 )">
    <path d="M 1290.5 138  A 4.5 4.5 0 0 1 1295 133.5 L 1365 133.5  A 4.5 4.5 0 0 1 1369.5 138 L 1369.5 163  A 4.5 4.5 0 0 1 1365 167.5 L 1295 167.5  A 4.5 4.5 0 0 1 1290.5 163 L 1290.5 138  Z " fill-rule="nonzero" fill="#f0f7ff" stroke="none" />
    <path d="M 1290.5 138  A 4.5 4.5 0 0 1 1295 133.5 L 1365 133.5  A 4.5 4.5 0 0 1 1369.5 138 L 1369.5 163  A 4.5 4.5 0 0 1 1365 167.5 L 1295 167.5  A 4.5 4.5 0 0 1 1290.5 163 L 1290.5 138  Z " stroke-width="1" stroke="#409eff" fill="none" />
  </g>
</svg>