<?xml version="1.0" encoding="utf-8"?>
<svg version="1.1" xmlns:xlink="http://www.w3.org/1999/xlink" width="16px" height="9px" xmlns="http://www.w3.org/2000/svg">
  <g transform="matrix(1 0 0 1 -345 -437 )">
    <path d="M 15.9854035087719 0.658080000000004  L 11.9882105263158 0.658080000000004  L 11.9882105263158 0.0187200000000039  L 10.9911578947368 0.0187200000000039  L 10.9911578947368 0.658080000000004  L 5.00884210526314 0.658080000000004  L 5.00884210526314 0.0187200000000039  L 4.01178947368422 0.0187200000000039  L 4.01178947368422 0.658080000000004  L 0.014596491228076 0.658080000000004  L 0.014596491228076 9  L 15.9854035087719 9  L 15.9854035087719 0.658080000000004  Z M 14.988350877193 4  L 14.988350877193 8.40528  L 1.011649122807 8.40528  L 1.011649122807 4  L 14.988350877193 4  Z M 14.9793684210526 3.22128000000001  L 14.988350877193 3.22128000000001  L 1.011649122807 3.22128000000001  L 1.011649122807 1.23408  L 4.00280701754384 1.23408  L 4.00280701754384 1.93679999999999  L 4.99985964912281 1.93679999999999  L 4.99985964912281 1.23408  L 10.9911578947368 1.23408  L 10.9911578947368 1.93679999999999  L 11.9882105263158 1.93679999999999  L 11.9882105263158 1.23408  L 14.9793684210526 1.23408  L 14.9793684210526 3.22128000000001  Z " fill-rule="nonzero" fill="#d7d7d7" stroke="none" transform="matrix(1 0 0 1 345 437 )" />
  </g>
</svg>