<?xml version="1.0" encoding="utf-8"?>
<svg version="1.1" xmlns:xlink="http://www.w3.org/1999/xlink" width="41px" height="32px" xmlns="http://www.w3.org/2000/svg">
  <g transform="matrix(1 0 0 1 -198 -900 )">
    <path d="M 199 904  A 3 3 0 0 1 202 901 L 235 901  A 3 3 0 0 1 238 904 L 238 928  A 3 3 0 0 1 235 931 L 202 931  A 3 3 0 0 1 199 928 L 199 904  Z " fill-rule="nonzero" fill="#81d3f8" stroke="none" fill-opacity="0.0980392156862745" />
    <path d="M 198.5 904  A 3.5 3.5 0 0 1 202 900.5 L 235 900.5  A 3.5 3.5 0 0 1 238.5 904 L 238.5 928  A 3.5 3.5 0 0 1 235 931.5 L 202 931.5  A 3.5 3.5 0 0 1 198.5 928 L 198.5 904  Z " stroke-width="1" stroke-dasharray="9,4" stroke="#02a7f0" fill="none" stroke-dashoffset="0.5" />
  </g>
</svg>