<?xml version="1.0" encoding="utf-8"?>
<svg version="1.1" xmlns:xlink="http://www.w3.org/1999/xlink" width="12px" height="12px" viewBox="166 725  12 12" xmlns="http://www.w3.org/2000/svg">
  <path d="M 172 725  C 175.36 725  178 727.64  178 731  C 178 734.36  175.36 737  172 737  C 168.64 737  166 734.36  166 731  C 166 727.64  168.64 725  172 725  Z " fill-rule="nonzero" fill="#ffffff" stroke="none" />
  <path d="M 172 725.5  C 175.08 725.5  177.5 727.92  177.5 731  C 177.5 734.08  175.08 736.5  172 736.5  C 168.92 736.5  166.5 734.08  166.5 731  C 166.5 727.92  168.92 725.5  172 725.5  Z " stroke-width="1" stroke="#797979" fill="none" />
  <path d="M 172 734  C 170.32 734  169 732.68  169 731  C 169 729.32  170.32 728  172 728  C 173.68 728  175 729.32  175 731  C 175 732.68  173.68 734  172 734  " fill-rule="nonzero" fill="#797979" stroke="none" />
</svg>