<?xml version="1.0" encoding="utf-8"?>
<svg version="1.1" xmlns:xlink="http://www.w3.org/1999/xlink" width="12px" height="12px" viewBox="248 929  12 12" xmlns="http://www.w3.org/2000/svg">
  <path d="M 254 929  C 257.36 929  260 931.64  260 935  C 260 938.36  257.36 941  254 941  C 250.64 941  248 938.36  248 935  C 248 931.64  250.64 929  254 929  Z " fill-rule="nonzero" fill="#f0f0f0" stroke="none" />
  <path d="M 254 929.5  C 257.08 929.5  259.5 931.92  259.5 935  C 259.5 938.08  257.08 940.5  254 940.5  C 250.92 940.5  248.5 938.08  248.5 935  C 248.5 931.92  250.92 929.5  254 929.5  Z " stroke-width="1" stroke="#797979" fill="none" />
  <path d="M 254 938  C 252.32 938  251 936.68  251 935  C 251 933.32  252.32 932  254 932  C 255.68 932  257 933.32  257 935  C 257 936.68  255.68 938  254 938  " fill-rule="nonzero" fill="#797979" stroke="none" />
</svg>