<?xml version="1.0" encoding="utf-8"?>
<svg version="1.1" xmlns:xlink="http://www.w3.org/1999/xlink" width="12px" height="12px" viewBox="177 2541  12 12" xmlns="http://www.w3.org/2000/svg">
  <path d="M 183 2541  C 186.36 2541  189 2543.64  189 2547  C 189 2550.36  186.36 2553  183 2553  C 179.64 2553  177 2550.36  177 2547  C 177 2543.64  179.64 2541  183 2541  Z " fill-rule="nonzero" fill="#f0f0f0" stroke="none" />
  <path d="M 183 2541.5  C 186.08 2541.5  188.5 2543.92  188.5 2547  C 188.5 2550.08  186.08 2552.5  183 2552.5  C 179.92 2552.5  177.5 2550.08  177.5 2547  C 177.5 2543.92  179.92 2541.5  183 2541.5  Z " stroke-width="1" stroke="#797979" fill="none" />
  <path d="M 183 2550  C 181.32 2550  180 2548.68  180 2547  C 180 2545.32  181.32 2544  183 2544  C 184.68 2544  186 2545.32  186 2547  C 186 2548.68  184.68 2550  183 2550  " fill-rule="nonzero" fill="#797979" stroke="none" />
</svg>