<?xml version="1.0" encoding="utf-8"?>
<svg version="1.1" xmlns:xlink="http://www.w3.org/1999/xlink" width="212px" height="36px" xmlns="http://www.w3.org/2000/svg">
  <g transform="matrix(1 0 0 1 -769 -146 )">
    <path d="M 966.998099744139 146.5  C 966.998099744139 146.5  969.942403503944 146.749988055078  969.942403503944 146.749988055078  C 969.942403503944 146.749988055078  980.471201581651 164  980.471201581651 164  C 980.471201581651 164  969.942403503944 181.250011944922  969.942403503944 181.250011944922  C 969.942403503944 181.250011944922  966.998099744139 181.5  966.998099744139 181.5  C 966.998099744139 181.5  769.5 181.5  769.5 181.5  C 769.5 181.5  769.5 146.5  769.5 146.5  C 769.5 146.5  966.998099744139 146.5  966.998099744139 146.5  Z " fill-rule="nonzero" fill="#0079fe" stroke="none" />
    <path d="M 966.998099744139 146.5  C 966.998099744139 146.5  969.942403503944 146.749988055078  969.942403503944 146.749988055078  C 969.942403503944 146.749988055078  980.471201581651 164  980.471201581651 164  C 980.471201581651 164  969.942403503944 181.250011944922  969.942403503944 181.250011944922  C 969.942403503944 181.250011944922  966.998099744139 181.5  966.998099744139 181.5  C 966.998099744139 181.5  769.5 181.5  769.5 181.5  C 769.5 181.5  769.5 146.5  769.5 146.5  C 769.5 146.5  966.998099744139 146.5  966.998099744139 146.5  Z " stroke-width="1" stroke="#d7d7d7" fill="none" />
  </g>
</svg>