<?xml version="1.0" encoding="utf-8"?>
<svg version="1.1" xmlns:xlink="http://www.w3.org/1999/xlink" width="236px" height="36px" xmlns="http://www.w3.org/2000/svg">
  <g transform="matrix(1 0 0 1 -934 -146 )">
    <path d="M 1156.06848161681 146.5  C 1156.06848161681 146.5  1158.94497709383 146.719393722824  1158.94497709383 146.719393722824  C 1158.94497709383 146.719393722824  1169.47395234705 164  1169.47395234705 164  C 1169.47395234705 164  1158.94497709383 181.280606277176  1158.94497709383 181.280606277176  C 1158.94497709383 181.280606277176  1156.06848161681 181.5  1156.06848161681 181.5  C 1156.06848161681 181.5  934.5 181.5  934.5 181.5  C 934.5 181.5  934.5 146.5  934.5 146.5  C 934.5 146.5  1156.06848161681 146.5  1156.06848161681 146.5  Z " fill-rule="nonzero" fill="#0079fe" stroke="none" />
    <path d="M 1156.06848161681 146.5  C 1156.06848161681 146.5  1158.94497709383 146.719393722824  1158.94497709383 146.719393722824  C 1158.94497709383 146.719393722824  1169.47395234705 164  1169.47395234705 164  C 1169.47395234705 164  1158.94497709383 181.280606277176  1158.94497709383 181.280606277176  C 1158.94497709383 181.280606277176  1156.06848161681 181.5  1156.06848161681 181.5  C 1156.06848161681 181.5  934.5 181.5  934.5 181.5  C 934.5 181.5  934.5 146.5  934.5 146.5  C 934.5 146.5  1156.06848161681 146.5  1156.06848161681 146.5  Z " stroke-width="1" stroke="#e4e4e4" fill="none" />
  </g>
</svg>