<?xml version="1.0" encoding="utf-8"?>
<svg version="1.1" xmlns:xlink="http://www.w3.org/1999/xlink" width="7px" height="14px" xmlns="http://www.w3.org/2000/svg">
  <g transform="matrix(1 0 0 1 -736 -1204 )">
    <path d="M 6.87972508591065 6.67735470941884  C 6.95990836197022 6.77087508350033  7 6.87842351369405  7 7  C 7 7.12157648630594  6.95990836197022 7.22912491649967  6.87972508591065 7.32264529058116  L 1.27491408934708 13.8597194388778  C 1.19473081328751 13.9532398129593  1.10252004581901 14  0.998281786941581 14  C 0.894043528064147 14  0.801832760595647 13.9532398129593  0.721649484536082 13.8597194388778  L 0.120274914089347 13.1583166332665  C 0.0400916380297824 13.064796259185  0 12.9572478289913  0 12.8356713426854  C 0 12.7140948563794  0.0400916380297824 12.6065464261857  0.120274914089347 12.5130260521042  L 4.84707903780069 7  L 0.120274914089347 1.48697394789579  C 0.0400916380297824 1.39345357381429  0 1.28590514362057  0 1.16432865731463  C 0 1.04275217100868  0.0400916380297824 0.935203740814962  0.120274914089347 0.841683366733466  L 0.721649484536082 0.140280561122245  C 0.801832760595647 0.0467601870407477  0.894043528064147 0  0.998281786941581 0  C 1.10252004581901 0  1.19473081328751 0.0467601870407477  1.27491408934708 0.140280561122245  L 6.87972508591065 6.67735470941884  Z " fill-rule="nonzero" fill="#999999" stroke="none" transform="matrix(1 0 0 1 736 1204 )" />
  </g>
</svg>