<?xml version="1.0" encoding="utf-8"?>
<svg version="1.1" xmlns:xlink="http://www.w3.org/1999/xlink" width="686px" height="40px" xmlns="http://www.w3.org/2000/svg">
  <defs>
    <mask fill="white" id="clip14">
      <path d="M 0 35  L 0 5  C 0 2.20000000000005  1.64580152671756 0  3.74045801526718 0  L 357.563654272347 0  L 682.259541984733 0  C 684.354198473282 0  686 2.20000000000005  686 5  L 686 35  C 686 37.8  684.354198473282 40  682.259541984733 40  L 3.74045801526718 40  C 1.64580152671756 40  0 37.8  0 35  Z " fill-rule="evenodd" />
    </mask>
  </defs>
  <g transform="matrix(1 0 0 1 -92 -732 )">
    <path d="M 0 35  L 0 5  C 0 2.20000000000005  1.64580152671756 0  3.74045801526718 0  L 357.563654272347 0  L 682.259541984733 0  C 684.354198473282 0  686 2.20000000000005  686 5  L 686 35  C 686 37.8  684.354198473282 40  682.259541984733 40  L 3.74045801526718 40  C 1.64580152671756 40  0 37.8  0 35  Z " fill-rule="nonzero" fill="#0079fe" stroke="none" transform="matrix(1 0 0 1 92 732 )" />
    <path d="M 0 35  L 0 5  C 0 2.20000000000005  1.64580152671756 0  3.74045801526718 0  L 357.563654272347 0  L 682.259541984733 0  C 684.354198473282 0  686 2.20000000000005  686 5  L 686 35  C 686 37.8  684.354198473282 40  682.259541984733 40  L 3.74045801526718 40  C 1.64580152671756 40  0 37.8  0 35  Z " stroke-width="2" stroke="#0079fe" fill="none" transform="matrix(1 0 0 1 92 732 )" mask="url(#clip14)" />
  </g>
</svg>