<?xml version="1.0" encoding="utf-8"?>
<svg version="1.1" xmlns:xlink="http://www.w3.org/1999/xlink" width="20px" height="11px" xmlns="http://www.w3.org/2000/svg">
  <g transform="matrix(1 0 0 1 -741 -202 )">
    <path d="M 19.62890625 8.91840277777778  C 19.8763020833333 9.16030092592592  20 9.44675925925926  20 9.77777777777778  C 20 10.1087962962963  19.8763020833333 10.3952546296296  19.62890625 10.6371527777778  C 19.3815104166667 10.8790509259259  19.0885416666667 11  18.75 11  L 1.25 11  C 0.911458333333333 11  0.618489583333333 10.8790509259259  0.37109375 10.6371527777778  C 0.123697916666667 10.3952546296296  0 10.1087962962963  0 9.77777777777778  C 0 9.44675925925926  0.123697916666667 9.16030092592592  0.37109375 8.91840277777778  L 9.12109375 0.362847222222223  C 9.36848958333334 0.120949074074073  9.66145833333334 0  10 0  C 10.3385416666667 0  10.6315104166667 0.120949074074073  10.87890625 0.362847222222223  L 19.62890625 8.91840277777778  Z " fill-rule="nonzero" fill="#808080" stroke="none" transform="matrix(1 0 0 1 741 202 )" />
  </g>
</svg>