<?xml version="1.0" encoding="utf-8"?>
<svg version="1.1" xmlns:xlink="http://www.w3.org/1999/xlink" width="80px" height="30px" xmlns="http://www.w3.org/2000/svg">
  <g transform="matrix(1 0 0 1 -1297 -433 )">
    <path d="M 1297.5 436  A 2.5 2.5 0 0 1 1300 433.5 L 1374 433.5  A 2.5 2.5 0 0 1 1376.5 436 L 1376.5 460  A 2.5 2.5 0 0 1 1374 462.5 L 1300 462.5  A 2.5 2.5 0 0 1 1297.5 460 L 1297.5 436  Z " fill-rule="nonzero" fill="#f0f7ff" stroke="none" />
    <path d="M 1297.5 436  A 2.5 2.5 0 0 1 1300 433.5 L 1374 433.5  A 2.5 2.5 0 0 1 1376.5 436 L 1376.5 460  A 2.5 2.5 0 0 1 1374 462.5 L 1300 462.5  A 2.5 2.5 0 0 1 1297.5 460 L 1297.5 436  Z " stroke-width="1" stroke="#409eff" fill="none" />
  </g>
</svg>