<?xml version="1.0" encoding="utf-8"?>
<svg version="1.1" xmlns:xlink="http://www.w3.org/1999/xlink" width="524px" height="120px" xmlns="http://www.w3.org/2000/svg">
  <g transform="matrix(1 0 0 1 -58 -199 )">
    <path d="M 59 203  A 3 3 0 0 1 62 200 L 578 200  A 3 3 0 0 1 581 203 L 581 315  A 3 3 0 0 1 578 318 L 62 318  A 3 3 0 0 1 59 315 L 59 203  Z " fill-rule="nonzero" fill="#000000" stroke="none" fill-opacity="0.0196078431372549" />
    <path d="M 58.5 203  A 3.5 3.5 0 0 1 62 199.5 L 578 199.5  A 3.5 3.5 0 0 1 581.5 203 L 581.5 315  A 3.5 3.5 0 0 1 578 318.5 L 62 318.5  A 3.5 3.5 0 0 1 58.5 315 L 58.5 203  Z " stroke-width="1" stroke-dasharray="9,4" stroke="#d9d9d9" fill="none" stroke-dashoffset="0.5" />
  </g>
</svg>