<?xml version="1.0" encoding="utf-8"?>
<svg version="1.1" xmlns:xlink="http://www.w3.org/1999/xlink" width="12px" height="12px" viewBox="1533 732  12 12" xmlns="http://www.w3.org/2000/svg">
  <path d="M 1539 732  C 1542.36 732  1545 734.64  1545 738  C 1545 741.36  1542.36 744  1539 744  C 1535.64 744  1533 741.36  1533 738  C 1533 734.64  1535.64 732  1539 732  Z " fill-rule="nonzero" fill="#ffffff" stroke="none" />
  <path d="M 1539 732.5  C 1542.08 732.5  1544.5 734.92  1544.5 738  C 1544.5 741.08  1542.08 743.5  1539 743.5  C 1535.92 743.5  1533.5 741.08  1533.5 738  C 1533.5 734.92  1535.92 732.5  1539 732.5  Z " stroke-width="1" stroke="#797979" fill="none" />
  <path d="M 1539 741  C 1537.32 741  1536 739.68  1536 738  C 1536 736.32  1537.32 735  1539 735  C 1540.68 735  1542 736.32  1542 738  C 1542 739.68  1540.68 741  1539 741  " fill-rule="nonzero" fill="#797979" stroke="none" />
</svg>