<?xml version="1.0" encoding="utf-8"?>
<svg version="1.1" xmlns:xlink="http://www.w3.org/1999/xlink" width="12px" height="12px" viewBox="914 782  12 12" xmlns="http://www.w3.org/2000/svg">
  <path d="M 920 782  C 923.36 782  926 784.64  926 788  C 926 791.36  923.36 794  920 794  C 916.64 794  914 791.36  914 788  C 914 784.64  916.64 782  920 782  Z " fill-rule="nonzero" fill="#ffffff" stroke="none" />
  <path d="M 920 782.5  C 923.08 782.5  925.5 784.92  925.5 788  C 925.5 791.08  923.08 793.5  920 793.5  C 916.92 793.5  914.5 791.08  914.5 788  C 914.5 784.92  916.92 782.5  920 782.5  Z " stroke-width="1" stroke="#797979" fill="none" />
  <path d="M 920 791  C 918.32 791  917 789.68  917 788  C 917 786.32  918.32 785  920 785  C 921.68 785  923 786.32  923 788  C 923 789.68  921.68 791  920 791  " fill-rule="nonzero" fill="#797979" stroke="none" />
</svg>