<?xml version="1.0" encoding="utf-8"?>
<svg version="1.1" xmlns:xlink="http://www.w3.org/1999/xlink" width="12px" height="12px" viewBox="914 933  12 12" xmlns="http://www.w3.org/2000/svg">
  <path d="M 920 933  C 923.36 933  926 935.64  926 939  C 926 942.36  923.36 945  920 945  C 916.64 945  914 942.36  914 939  C 914 935.64  916.64 933  920 933  Z " fill-rule="nonzero" fill="#f0f0f0" stroke="none" />
  <path d="M 920 933.5  C 923.08 933.5  925.5 935.92  925.5 939  C 925.5 942.08  923.08 944.5  920 944.5  C 916.92 944.5  914.5 942.08  914.5 939  C 914.5 935.92  916.92 933.5  920 933.5  Z " stroke-width="1" stroke="#797979" fill="none" />
  <path d="M 920 942  C 918.32 942  917 940.68  917 939  C 917 937.32  918.32 936  920 936  C 921.68 936  923 937.32  923 939  C 923 940.68  921.68 942  920 942  " fill-rule="nonzero" fill="#797979" stroke="none" />
</svg>