<?xml version="1.0" encoding="utf-8"?>
<svg version="1.1" xmlns:xlink="http://www.w3.org/1999/xlink" width="309px" height="30px" xmlns="http://www.w3.org/2000/svg">
  <defs>
    <mask fill="white" id="clip389">
      <path d="M 0 26.25  L 0 3.75  C 0 1.64999999999999  2.20000000000005 0  5 0  L 167.545454545455 0  L 304 0  C 306.8 0  309 1.64999999999999  309 3.75  L 309 26.25  C 309 28.35  306.8 30  304 30  L 5 30  C 2.20000000000005 30  0 28.35  0 26.25  Z " fill-rule="evenodd" />
    </mask>
  </defs>
  <g transform="matrix(1 0 0 1 -213 -272 )">
    <path d="M 0 26.25  L 0 3.75  C 0 1.64999999999999  2.20000000000005 0  5 0  L 167.545454545455 0  L 304 0  C 306.8 0  309 1.64999999999999  309 3.75  L 309 26.25  C 309 28.35  306.8 30  304 30  L 5 30  C 2.20000000000005 30  0 28.35  0 26.25  Z " fill-rule="nonzero" fill="#0079fe" stroke="none" transform="matrix(1 0 0 1 213 272 )" />
    <path d="M 0 26.25  L 0 3.75  C 0 1.64999999999999  2.20000000000005 0  5 0  L 167.545454545455 0  L 304 0  C 306.8 0  309 1.64999999999999  309 3.75  L 309 26.25  C 309 28.35  306.8 30  304 30  L 5 30  C 2.20000000000005 30  0 28.35  0 26.25  Z " stroke-width="2" stroke="#0079fe" fill="none" transform="matrix(1 0 0 1 213 272 )" mask="url(#clip389)" />
  </g>
</svg>