<?xml version="1.0" encoding="utf-8"?>
<svg version="1.1" xmlns:xlink="http://www.w3.org/1999/xlink" width="12px" height="12px" viewBox="766 88  12 12" xmlns="http://www.w3.org/2000/svg">
  <path d="M 772 88  C 775.36 88  778 90.64  778 94  C 778 97.36  775.36 100  772 100  C 768.64 100  766 97.36  766 94  C 766 90.64  768.64 88  772 88  Z " fill-rule="nonzero" fill="#f0f0f0" stroke="none" />
  <path d="M 772 88.5  C 775.08 88.5  777.5 90.92  777.5 94  C 777.5 97.08  775.08 99.5  772 99.5  C 768.92 99.5  766.5 97.08  766.5 94  C 766.5 90.92  768.92 88.5  772 88.5  Z " stroke-width="1" stroke="#797979" fill="none" />
  <path d="M 772 97  C 770.32 97  769 95.68  769 94  C 769 92.32  770.32 91  772 91  C 773.68 91  775 92.32  775 94  C 775 95.68  773.68 97  772 97  " fill-rule="nonzero" fill="#797979" stroke="none" />
</svg>