<?xml version="1.0" encoding="utf-8"?>
<svg version="1.1" xmlns:xlink="http://www.w3.org/1999/xlink" width="519px" height="142px" xmlns="http://www.w3.org/2000/svg">
  <g transform="matrix(1 0 0 1 -79 -791 )">
    <path d="M 80 795  A 3 3 0 0 1 83 792 L 594 792  A 3 3 0 0 1 597 795 L 597 929  A 3 3 0 0 1 594 932 L 83 932  A 3 3 0 0 1 80 929 L 80 795  Z " fill-rule="nonzero" fill="#000000" stroke="none" fill-opacity="0.0196078431372549" />
    <path d="M 79.5 795  A 3.5 3.5 0 0 1 83 791.5 L 594 791.5  A 3.5 3.5 0 0 1 597.5 795 L 597.5 929  A 3.5 3.5 0 0 1 594 932.5 L 83 932.5  A 3.5 3.5 0 0 1 79.5 929 L 79.5 795  Z " stroke-width="1" stroke-dasharray="9,4" stroke="#d9d9d9" fill="none" stroke-dashoffset="0.5" />
  </g>
</svg>