<?xml version="1.0" encoding="utf-8"?>
<svg version="1.1" xmlns:xlink="http://www.w3.org/1999/xlink" width="12px" height="12px" viewBox="690 88  12 12" xmlns="http://www.w3.org/2000/svg">
  <path d="M 696 88  C 699.36 88  702 90.64  702 94  C 702 97.36  699.36 100  696 100  C 692.64 100  690 97.36  690 94  C 690 90.64  692.64 88  696 88  Z " fill-rule="nonzero" fill="#ffffff" stroke="none" />
  <path d="M 696 88.5  C 699.08 88.5  701.5 90.92  701.5 94  C 701.5 97.08  699.08 99.5  696 99.5  C 692.92 99.5  690.5 97.08  690.5 94  C 690.5 90.92  692.92 88.5  696 88.5  Z " stroke-width="1" stroke="#797979" fill="none" />
  <path d="M 696 97  C 694.32 97  693 95.68  693 94  C 693 92.32  694.32 91  696 91  C 697.68 91  699 92.32  699 94  C 699 95.68  697.68 97  696 97  " fill-rule="nonzero" fill="#797979" stroke="none" />
</svg>