<?xml version="1.0" encoding="utf-8"?>
<svg version="1.1" xmlns:xlink="http://www.w3.org/1999/xlink" width="100px" height="40px" xmlns="http://www.w3.org/2000/svg">
  <defs>
    <mask fill="white" id="clip41">
      <path d="M 0 24  L 0 16  C 0 7.03999999999996  7.03999999999996 0  16 0  L 84 0  C 92.96 0  100 7.03999999999996  100 16  L 100 24  C 100 32.96  92.96 40  84 40  L 47.3888888888889 40  L 16 40  C 7.03999999999996 40  0 32.96  0 24  Z " fill-rule="evenodd" />
    </mask>
  </defs>
  <g transform="matrix(1 0 0 1 -1004 -877 )">
    <path d="M 0 24  L 0 16  C 0 7.03999999999996  7.03999999999996 0  16 0  L 84 0  C 92.96 0  100 7.03999999999996  100 16  L 100 24  C 100 32.96  92.96 40  84 40  L 47.3888888888889 40  L 16 40  C 7.03999999999996 40  0 32.96  0 24  Z " fill-rule="nonzero" fill="#f2f2f2" stroke="none" transform="matrix(1 0 0 1 1004 877 )" />
    <path d="M 0 24  L 0 16  C 0 7.03999999999996  7.03999999999996 0  16 0  L 84 0  C 92.96 0  100 7.03999999999996  100 16  L 100 24  C 100 32.96  92.96 40  84 40  L 47.3888888888889 40  L 16 40  C 7.03999999999996 40  0 32.96  0 24  Z " stroke-width="2" stroke="#0079fe" fill="none" transform="matrix(1 0 0 1 1004 877 )" mask="url(#clip41)" />
  </g>
</svg>