<?xml version="1.0" encoding="utf-8"?>
<svg version="1.1" xmlns:xlink="http://www.w3.org/1999/xlink" width="10px" height="10px" xmlns="http://www.w3.org/2000/svg">
  <g transform="matrix(1 0 0 1 -153 -414 )">
    <path d="M 2.490234375 0.670572916666666  C 3.25629340277778 0.223524305555555  4.09288194444444 0  5 0  C 5.90711805555556 0  6.74370659722222 0.223524305555555  7.509765625 0.670572916666666  C 8.27582465277778 1.11762152777778  8.88237847222222 1.72417534722222  9.32942708333333 2.490234375  C 9.77647569444444 3.25629340277778  10 4.09288194444444  10 5  C 10 5.90711805555556  9.77647569444444 6.74370659722222  9.32942708333333 7.509765625  C 8.88237847222222 8.27582465277778  8.27582465277778 8.88237847222222  7.509765625 9.32942708333333  C 6.74370659722222 9.77647569444444  5.90711805555556 10  5 10  C 4.09288194444444 10  3.25629340277778 9.77647569444444  2.490234375 9.32942708333333  C 1.72417534722222 8.88237847222222  1.11762152777778 8.27582465277778  0.670572916666667 7.509765625  C 0.223524305555556 6.74370659722222  0 5.90711805555556  0 5  C 0 4.09288194444444  0.223524305555556 3.25629340277778  0.670572916666667 2.490234375  C 1.11762152777778 1.72417534722222  1.72417534722222 1.11762152777778  2.490234375 0.670572916666666  Z M 5.77473958333333 8.271484375  C 5.81380208333333 8.23025173611111  5.83333333333333 8.17925347222222  5.83333333333333 8.11848958333333  L 5.83333333333333 6.88151041666667  C 5.83333333333333 6.82074652777778  5.81380208333333 6.76974826388889  5.77473958333333 6.728515625  C 5.73567708333333 6.68728298611111  5.68793402777778 6.66666666666667  5.63151041666667 6.66666666666667  L 4.38151041666667 6.66666666666667  C 4.32508680555556 6.66666666666667  4.27517361111111 6.68836805555556  4.23177083333333 6.73177083333333  C 4.18836805555556 6.77517361111111  4.16666666666667 6.82508680555556  4.16666666666667 6.88151041666667  L 4.16666666666667 8.11848958333333  C 4.16666666666667 8.17491319444444  4.18836805555556 8.22482638888889  4.23177083333333 8.26822916666667  C 4.27517361111111 8.31163194444444  4.32508680555556 8.33333333333333  4.38151041666667 8.33333333333333  L 5.63151041666667 8.33333333333333  C 5.68793402777778 8.33333333333333  5.73567708333333 8.31271701388889  5.77473958333333 8.271484375  Z M 5.751953125 5.99283854166667  C 5.79318576388889 5.96028645833333  5.81597222222222 5.92230902777778  5.8203125 5.87890625  L 5.9375 1.8359375  C 5.9375 1.78385416666667  5.91579861111111 1.74479166666667  5.87239583333333 1.71875  C 5.82899305555556 1.68402777777778  5.77690972222222 1.66666666666667  5.71614583333333 1.66666666666667  L 4.28385416666667 1.66666666666667  C 4.22309027777778 1.66666666666667  4.17100694444444 1.68402777777778  4.12760416666667 1.71875  C 4.08420138888889 1.74479166666667  4.0625 1.78385416666667  4.0625 1.8359375  L 4.17317708333333 5.87890625  C 4.17317708333333 5.92230902777778  4.19487847222222 5.96028645833333  4.23828125 5.99283854166667  C 4.28168402777778 6.025390625  4.33376736111111 6.04166666666667  4.39453125 6.04166666666667  L 5.59895833333333 6.04166666666667  C 5.65972222222222 6.04166666666667  5.71072048611111 6.025390625  5.751953125 5.99283854166667  Z " fill-rule="nonzero" fill="#02a7f0" stroke="none" transform="matrix(1 0 0 1 153 414 )" />
  </g>
</svg>