<?xml version="1.0" encoding="utf-8"?>
<svg version="1.1" xmlns:xlink="http://www.w3.org/1999/xlink" width="104px" height="104px" xmlns="http://www.w3.org/2000/svg">
  <g transform="matrix(1 0 0 1 -113 -449 )">
    <path d="M 114 453  A 3 3 0 0 1 117 450 L 213 450  A 3 3 0 0 1 216 453 L 216 549  A 3 3 0 0 1 213 552 L 117 552  A 3 3 0 0 1 114 549 L 114 453  Z " fill-rule="nonzero" fill="#000000" stroke="none" fill-opacity="0.0196078431372549" />
    <path d="M 113.5 453  A 3.5 3.5 0 0 1 117 449.5 L 213 449.5  A 3.5 3.5 0 0 1 216.5 453 L 216.5 549  A 3.5 3.5 0 0 1 213 552.5 L 117 552.5  A 3.5 3.5 0 0 1 113.5 549 L 113.5 453  Z " stroke-width="1" stroke-dasharray="9,4" stroke="#d9d9d9" fill="none" stroke-dashoffset="0.5" />
  </g>
</svg>