<?xml version="1.0" encoding="utf-8"?>
<svg version="1.1" xmlns:xlink="http://www.w3.org/1999/xlink" width="839px" height="142px" xmlns="http://www.w3.org/2000/svg">
  <g transform="matrix(1 0 0 1 -3433 -1428 )">
    <path d="M 3434 1432  A 3 3 0 0 1 3437 1429 L 4268 1429  A 3 3 0 0 1 4271 1432 L 4271 1566  A 3 3 0 0 1 4268 1569 L 3437 1569  A 3 3 0 0 1 3434 1566 L 3434 1432  Z " fill-rule="nonzero" fill="#000000" stroke="none" fill-opacity="0.0196078431372549" />
    <path d="M 3433.5 1432  A 3.5 3.5 0 0 1 3437 1428.5 L 4268 1428.5  A 3.5 3.5 0 0 1 4271.5 1432 L 4271.5 1566  A 3.5 3.5 0 0 1 4268 1569.5 L 3437 1569.5  A 3.5 3.5 0 0 1 3433.5 1566 L 3433.5 1432  Z " stroke-width="1" stroke-dasharray="9,4" stroke="#d9d9d9" fill="none" stroke-dashoffset="0.5" />
  </g>
</svg>