<?xml version="1.0" encoding="utf-8"?>
<svg version="1.1" xmlns:xlink="http://www.w3.org/1999/xlink" width="21px" height="30px" xmlns="http://www.w3.org/2000/svg">
  <g transform="matrix(1 0 0 1 -2167 -258 )">
    <path d="M 20.6103515625 18.1321022727273  C 20.8701171875 18.4019886363636  21 18.7215909090909  21 19.0909090909091  C 21 19.4602272727273  20.8701171875 19.7798295454545  20.6103515625 20.0497159090909  L 11.4228515625 29.5951704545455  C 11.1630859375 29.8650568181818  10.85546875 30  10.5 30  C 10.14453125 30  9.8369140625 29.8650568181818  9.5771484375 29.5951704545455  L 0.3896484375 20.0497159090909  C 0.1298828125 19.7798295454545  0 19.4602272727273  0 19.0909090909091  C 0 18.7215909090909  0.1298828125 18.4019886363636  0.3896484375 18.1321022727273  C 0.6494140625 17.8622159090909  0.95703125 17.7272727272727  1.3125 17.7272727272727  L 19.6875 17.7272727272727  C 20.04296875 17.7272727272727  20.3505859375 17.8622159090909  20.6103515625 18.1321022727273  Z M 20.6103515625 9.95028409090909  C 20.8701171875 10.2201704545455  21 10.5397727272727  21 10.9090909090909  C 21 11.2784090909091  20.8701171875 11.5980113636364  20.6103515625 11.8678977272727  C 20.3505859375 12.1377840909091  20.04296875 12.2727272727273  19.6875 12.2727272727273  L 1.3125 12.2727272727273  C 0.95703125 12.2727272727273  0.6494140625 12.1377840909091  0.3896484375 11.8678977272727  C 0.1298828125 11.5980113636364  0 11.2784090909091  0 10.9090909090909  C 0 10.5397727272727  0.1298828125 10.2201704545455  0.3896484375 9.95028409090909  L 9.5771484375 0.404829545454547  C 9.8369140625 0.134943181818179  10.14453125 0  10.5 0  C 10.85546875 0  11.1630859375 0.134943181818179  11.4228515625 0.404829545454547  L 20.6103515625 9.95028409090909  Z " fill-rule="nonzero" fill="#7f7f7f" stroke="none" transform="matrix(1 0 0 1 2167 258 )" />
  </g>
</svg>