<?xml version="1.0" encoding="utf-8"?>
<svg version="1.1" xmlns:xlink="http://www.w3.org/1999/xlink" width="236px" height="36px" xmlns="http://www.w3.org/2000/svg">
  <g transform="matrix(1 0 0 1 -948 -326 )">
    <path d="M 1170.06848161681 326.5  C 1170.06848161681 326.5  1172.94497709383 326.719393722824  1172.94497709383 326.719393722824  C 1172.94497709383 326.719393722824  1183.47395234705 344  1183.47395234705 344  C 1183.47395234705 344  1172.94497709383 361.280606277176  1172.94497709383 361.280606277176  C 1172.94497709383 361.280606277176  1170.06848161681 361.5  1170.06848161681 361.5  C 1170.06848161681 361.5  948.5 361.5  948.5 361.5  C 948.5 361.5  948.5 326.5  948.5 326.5  C 948.5 326.5  1170.06848161681 326.5  1170.06848161681 326.5  Z " fill-rule="nonzero" fill="#f2f2f2" stroke="none" />
    <path d="M 1170.06848161681 326.5  C 1170.06848161681 326.5  1172.94497709383 326.719393722824  1172.94497709383 326.719393722824  C 1172.94497709383 326.719393722824  1183.47395234705 344  1183.47395234705 344  C 1183.47395234705 344  1172.94497709383 361.280606277176  1172.94497709383 361.280606277176  C 1172.94497709383 361.280606277176  1170.06848161681 361.5  1170.06848161681 361.5  C 1170.06848161681 361.5  948.5 361.5  948.5 361.5  C 948.5 361.5  948.5 326.5  948.5 326.5  C 948.5 326.5  1170.06848161681 326.5  1170.06848161681 326.5  Z " stroke-width="1" stroke="#e4e4e4" fill="none" />
  </g>
</svg>