<?xml version="1.0" encoding="utf-8"?>
<svg version="1.1" xmlns:xlink="http://www.w3.org/1999/xlink" width="40px" height="31px" xmlns="http://www.w3.org/2000/svg">
  <g transform="matrix(1 0 0 1 -242 -2305 )">
    <path d="M 18.6547085201794 23.25  L 19.9103139013453 23.25  L 22.5112107623318 20.6960227272727  L 19.1031390134529 17.3494318181818  L 16.5022421524664 19.9034090909091  L 16.5022421524664 21.1363636363636  L 18.6547085201794 21.1363636363636  L 18.6547085201794 23.25  Z M 29.7533632286996 8.12428977272727  C 30.0074738415546 7.87476325757575  30.0149476831091 7.63257575757575  29.7757847533632 7.39772727272727  C 29.5366218236173 7.16287878787879  29.2899850523169 7.1702178030303  29.0358744394619 7.41974431818182  L 21.1883408071749 15.1257102272727  C 20.9342301943199 15.3752367424242  20.9267563527653 15.6174242424242  21.1659192825112 15.8522727272727  C 21.4050822122571 16.0871212121212  21.6517189835576 16.0797821969697  21.9058295964126 15.8302556818182  L 29.7533632286996 8.12428977272727  Z M 31.1210762331839 19.8373579545455  C 31.4200298953662 19.9547821969697  31.5695067264574 20.1676136363636  31.5695067264574 20.4758522727273  L 31.5695067264574 24.6590909090909  C 31.5695067264574 26.4057765151515  30.9379671150972 27.8992660984849  29.6748878923767 29.1395596590909  C 28.4118086696562 30.379853219697  26.8908819133034 31  25.1121076233184 31  L 6.45739910313901 31  C 4.67862481315396 31  3.1576980568012 30.379853219697  1.89461883408072 29.1395596590909  C 0.631539611360239 27.8992660984849  0 26.4057765151515  0 24.6590909090909  L 0 6.34090909090909  C 0 4.59422348484848  0.631539611360239 3.10073390151515  1.89461883408072 1.86044034090909  C 3.1576980568012 0.620146780303027  4.67862481315396 0  6.45739910313901 0  L 25.1121076233184 0  C 26.0538116591928 0  26.9282511210762 0.183475378787877  27.7354260089686 0.550426136363635  C 27.9596412556054 0.653172348484846  28.0941704035874 0.821969696969696  28.1390134529148 1.05681818181818  C 28.1838565022422 1.3063446969697  28.1165919282511 1.51917613636363  27.9372197309417 1.6953125  L 26.8385650224215 2.77414772727273  C 26.6292974588939 2.97964015151515  26.390134529148 3.03835227272727  26.1210762331839 2.95028409090909  C 25.7772795216741 2.86221590909091  25.440956651719 2.81818181818182  25.1121076233184 3  L 6.45739910313901 3  C 5.47085201793722 2.81818181818182  4.62630792227205 3.16311553030303  3.9237668161435 3.85298295454545  C 3.22122571001495 4.54285037878788  2.86995515695067 5.37215909090909  3 6.34090909090909  L 3 24.6590909090909  C 2.86995515695067 25.6278409090909  3.22122571001495 26.4571496212121  3.9237668161435 27.1470170454545  C 4.62630792227205 27.836884469697  5.47085201793722 28.1818181818182  6.45739910313901 28  L 25.1121076233184 28  C 26.0986547085202 28.1818181818182  26.9431988041854 27.836884469697  27.6457399103139 27.1470170454545  C 28.3482810164425 26.4571496212121  28.6995515695067 25.6278409090909  28.6995515695067 24.6590909090909  L 28.6995515695067 21.8849431818182  C 28.6995515695067 21.6941287878788  28.7668161434978 21.5326704545455  28.9013452914798 21.4005681818182  L 30.3363228699552 19.9914772727273  C 30.5605381165919 19.7713068181818  30.8221225710015 19.7199337121212  31.1210762331839 19.8373579545455  Z M 14.3497757847534 19.0227272727273  L 29.4170403587444 4.22727272727273  L 35.8744394618834 10.5681818181818  L 20.8071748878924 25.3636363636364  L 14.3497757847534 25.3636363636364  L 14.3497757847534 19.0227272727273  Z M 40 5.63636363636363  C 40 6.22348484848485  39.7907324364723 6.72253787878788  39.372197309417 7.13352272727273  L 37.3094170403587 9.15909090909091  L 30.8520179372197 2.81818181818182  L 32.914798206278 0.792613636363635  C 33.3333333333333 0.381628787878785  33.8415545590434 0.176136363636365  34.4394618834081 0.176136363636365  C 35.0373692077728 0.176136363636365  35.5455904334828 0.381628787878785  35.9641255605381 0.792613636363635  L 39.372197309417 4.13920454545455  C 39.7907324364723 4.55018939393939  40 5.04924242424242  40 5.63636363636363  Z " fill-rule="nonzero" fill="#aaaaaa" stroke="none" transform="matrix(1 0 0 1 242 2305 )" />
  </g>
</svg>