<?xml version="1.0" encoding="utf-8"?>
<svg version="1.1" xmlns:xlink="http://www.w3.org/1999/xlink" width="12px" height="12px" viewBox="173 221.5  12 12" xmlns="http://www.w3.org/2000/svg">
  <path d="M 179 221.5  C 182.36 221.5  185 224.14  185 227.5  C 185 230.86  182.36 233.5  179 233.5  C 175.64 233.5  173 230.86  173 227.5  C 173 224.14  175.64 221.5  179 221.5  Z " fill-rule="nonzero" fill="#f0f0f0" stroke="none" />
  <path d="M 179 222  C 182.08 222  184.5 224.42  184.5 227.5  C 184.5 230.58  182.08 233  179 233  C 175.92 233  173.5 230.58  173.5 227.5  C 173.5 224.42  175.92 222  179 222  Z " stroke-width="1" stroke="#797979" fill="none" />
  <path d="M 179 230.5  C 177.32 230.5  176 229.18  176 227.5  C 176 225.82  177.32 224.5  179 224.5  C 180.68 224.5  182 225.82  182 227.5  C 182 229.18  180.68 230.5  179 230.5  " fill-rule="nonzero" fill="#797979" stroke="none" />
</svg>