<?xml version="1.0" encoding="utf-8"?>
<svg version="1.1" xmlns:xlink="http://www.w3.org/1999/xlink" width="331px" height="104px" xmlns="http://www.w3.org/2000/svg">
  <g transform="matrix(1 0 0 1 -106 -2269 )">
    <path d="M 107 2273  A 3 3 0 0 1 110 2270 L 433 2270  A 3 3 0 0 1 436 2273 L 436 2369  A 3 3 0 0 1 433 2372 L 110 2372  A 3 3 0 0 1 107 2369 L 107 2273  Z " fill-rule="nonzero" fill="#000000" stroke="none" fill-opacity="0.0196078431372549" />
    <path d="M 106.5 2273  A 3.5 3.5 0 0 1 110 2269.5 L 433 2269.5  A 3.5 3.5 0 0 1 436.5 2273 L 436.5 2369  A 3.5 3.5 0 0 1 433 2372.5 L 110 2372.5  A 3.5 3.5 0 0 1 106.5 2369 L 106.5 2273  Z " stroke-width="1" stroke-dasharray="9,4" stroke="#d9d9d9" fill="none" stroke-dashoffset="0.5" />
  </g>
</svg>