<?xml version="1.0" encoding="utf-8"?>
<svg version="1.1" xmlns:xlink="http://www.w3.org/1999/xlink" width="12px" height="12px" viewBox="171 71.5  12 12" xmlns="http://www.w3.org/2000/svg">
  <path d="M 177 71.5  C 180.36 71.5  183 74.14  183 77.5  C 183 80.86  180.36 83.5  177 83.5  C 173.64 83.5  171 80.86  171 77.5  C 171 74.14  173.64 71.5  177 71.5  Z " fill-rule="nonzero" fill="#f0f0f0" stroke="none" />
  <path d="M 177 72  C 180.08 72  182.5 74.42  182.5 77.5  C 182.5 80.58  180.08 83  177 83  C 173.92 83  171.5 80.58  171.5 77.5  C 171.5 74.42  173.92 72  177 72  Z " stroke-width="1" stroke="#797979" fill="none" />
  <path d="M 177 80.5  C 175.32 80.5  174 79.18  174 77.5  C 174 75.82  175.32 74.5  177 74.5  C 178.68 74.5  180 75.82  180 77.5  C 180 79.18  178.68 80.5  177 80.5  " fill-rule="nonzero" fill="#797979" stroke="none" />
</svg>