<?xml version="1.0" encoding="utf-8"?>
<svg version="1.1" xmlns:xlink="http://www.w3.org/1999/xlink" width="80px" height="35px" xmlns="http://www.w3.org/2000/svg">
  <g transform="matrix(1 0 0 1 -770 -255 )">
    <path d="M 770.5 260  A 4.5 4.5 0 0 1 775 255.5 L 845 255.5  A 4.5 4.5 0 0 1 849.5 260 L 849.5 285  A 4.5 4.5 0 0 1 845 289.5 L 775 289.5  A 4.5 4.5 0 0 1 770.5 285 L 770.5 260  Z " fill-rule="nonzero" fill="#f9f9f9" stroke="none" fill-opacity="0" />
    <path d="M 770.5 260  A 4.5 4.5 0 0 1 775 255.5 L 845 255.5  A 4.5 4.5 0 0 1 849.5 260 L 849.5 285  A 4.5 4.5 0 0 1 845 289.5 L 775 289.5  A 4.5 4.5 0 0 1 770.5 285 L 770.5 260  Z " stroke-width="1" stroke="#e4e4e4" fill="none" />
  </g>
</svg>