<?xml version="1.0" encoding="utf-8"?>
<svg version="1.1" xmlns:xlink="http://www.w3.org/1999/xlink" width="15px" height="15px" xmlns="http://www.w3.org/2000/svg">
  <g transform="matrix(1 0 0 1 -202 -438 )">
    <path d="M 10.625 5  C 10.8854166666667 5  11.0709635416667 5.11393229166667  11.181640625 5.341796875  C 11.298828125 5.56966145833333  11.2825520833333 5.78450520833333  11.1328125 5.986328125  L 8.0078125 10.361328125  C 7.88411458333333 10.537109375  7.71484375 10.625  7.5 10.625  C 7.28515625 10.625  7.11588541666667 10.537109375  6.9921875 10.361328125  L 3.8671875 5.986328125  C 3.71744791666667 5.78450520833333  3.701171875 5.56966145833333  3.818359375 5.341796875  C 3.92903645833333 5.11393229166667  4.11458333333333 5  4.375 5  L 10.625 5  Z M 12.4072265625 12.4072265625  C 12.4690755208333 12.3453776041667  12.5 12.2721354166667  12.5 12.1875  L 12.5 2.8125  C 12.5 2.72786458333333  12.4690755208333 2.65462239583333  12.4072265625 2.5927734375  C 12.3453776041667 2.53092447916667  12.2721354166667 2.5  12.1875 2.5  L 2.8125 2.5  C 2.72786458333333 2.5  2.65462239583333 2.53092447916667  2.5927734375 2.5927734375  C 2.53092447916667 2.65462239583333  2.5 2.72786458333333  2.5 2.8125  L 2.5 12.1875  C 2.5 12.2721354166667  2.53092447916667 12.3453776041667  2.5927734375 12.4072265625  C 2.65462239583333 12.4690755208333  2.72786458333333 12.5  2.8125 12.5  L 12.1875 12.5  C 12.2721354166667 12.5  12.3453776041667 12.4690755208333  12.4072265625 12.4072265625  Z M 14.1748046875 0.825195312500001  C 14.7249348958333 1.37532552083333  15 2.03776041666666  15 2.8125  L 15 12.1875  C 15 12.9622395833333  14.7249348958333 13.6246744791667  14.1748046875 14.1748046875  C 13.6246744791667 14.7249348958333  12.9622395833333 15  12.1875 15  L 2.8125 15  C 2.03776041666667 15  1.37532552083333 14.7249348958333  0.8251953125 14.1748046875  C 0.275065104166667 13.6246744791667  0 12.9622395833333  0 12.1875  L 0 2.8125  C 0 2.03776041666666  0.275065104166667 1.37532552083333  0.8251953125 0.825195312500001  C 1.37532552083333 0.275065104166666  2.03776041666667 0  2.8125 0  L 12.1875 0  C 12.9622395833333 0  13.6246744791667 0.275065104166666  14.1748046875 0.825195312500001  Z " fill-rule="nonzero" fill="#ffffff" stroke="none" transform="matrix(1 0 0 1 202 438 )" />
  </g>
</svg>