<?xml version="1.0" encoding="utf-8"?>
<svg version="1.1" xmlns:xlink="http://www.w3.org/1999/xlink" width="707px" height="142px" xmlns="http://www.w3.org/2000/svg">
  <g transform="matrix(1 0 0 1 -106 -180 )">
    <path d="M 107 184  A 3 3 0 0 1 110 181 L 809 181  A 3 3 0 0 1 812 184 L 812 318  A 3 3 0 0 1 809 321 L 110 321  A 3 3 0 0 1 107 318 L 107 184  Z " fill-rule="nonzero" fill="#000000" stroke="none" fill-opacity="0.0196078431372549" />
    <path d="M 106.5 184  A 3.5 3.5 0 0 1 110 180.5 L 809 180.5  A 3.5 3.5 0 0 1 812.5 184 L 812.5 318  A 3.5 3.5 0 0 1 809 321.5 L 110 321.5  A 3.5 3.5 0 0 1 106.5 318 L 106.5 184  Z " stroke-width="1" stroke-dasharray="9,4" stroke="#d9d9d9" fill="none" stroke-dashoffset="0.5" />
  </g>
</svg>