<?xml version="1.0" encoding="utf-8"?>
<svg version="1.1" xmlns:xlink="http://www.w3.org/1999/xlink" width="6px" height="3px" xmlns="http://www.w3.org/2000/svg">
  <g transform="matrix(1 0 0 1 -142 -506 )">
    <path d="M 4.77599999999999 2.96  L 4.77599999999999 1.776  L 5.96 1.776  L 5.96 2.96  L 4.77599999999999 2.96  Z M 2.40799999999999 1.184  L 2.40799999999999 0  L 3.59200000000001 0  L 3.59200000000001 1.184  L 2.40799999999999 1.184  Z M 4.77599999999999 1.184  L 4.77599999999999 0  L 5.96 0  L 5.96 1.184  L 4.77599999999999 1.184  Z M 0.0346666666666636 2.96  L 0.0346666666666636 1.776  L 1.21866666666667 1.776  L 1.21866666666667 2.96  L 0.0346666666666636 2.96  Z M 2.40799999999999 2.96  L 2.40799999999999 1.776  L 3.59200000000001 1.776  L 3.59200000000001 2.96  L 2.40799999999999 2.96  Z M 0.0346666666666636 1.184  L 0.0346666666666636 0  L 1.21866666666667 0  L 1.21866666666667 1.184  L 0.0346666666666636 1.184  Z " fill-rule="nonzero" fill="#d7d7d7" stroke="none" transform="matrix(1 0 0 1 142 506 )" />
  </g>
</svg>