<?xml version="1.0" encoding="utf-8"?>
<svg version="1.1" xmlns:xlink="http://www.w3.org/1999/xlink" width="26px" height="26px" xmlns="http://www.w3.org/2000/svg">
  <g transform="matrix(1 0 0 1 -1118 -788 )">
    <path d="M 1131 789  C 1137.72 789  1143 794.28  1143 801  C 1143 807.72  1137.72 813  1131 813  C 1124.28 813  1119 807.72  1119 801  C 1119 794.28  1124.28 789  1131 789  Z " fill-rule="nonzero" fill="#ffffff" stroke="none" />
    <path d="M 1131 789  C 1137.72 789  1143 794.28  1143 801  C 1143 807.72  1137.72 813  1131 813  C 1124.28 813  1119 807.72  1119 801  C 1119 794.28  1124.28 789  1131 789  Z " stroke-width="2" stroke="#e4e4e4" fill="none" />
  </g>
</svg>