<?xml version="1.0" encoding="utf-8"?>
<svg version="1.1" xmlns:xlink="http://www.w3.org/1999/xlink" width="19px" height="12px" xmlns="http://www.w3.org/2000/svg">
  <g transform="matrix(1 0 0 1 -280 -228 )">
    <path d="M 18.809619238477 9.81443298969072  C 18.936539746159 9.95189003436426  19 10.1099656357388  19 10.2886597938144  C 19 10.46735395189  18.936539746159 10.6254295532646  18.809619238477 10.7628865979381  L 17.8577154308617 11.7938144329897  C 17.7307949231797 11.9312714776632  17.5848363393454 12  17.4198396793587 12  C 17.2548430193721 12  17.1088844355377 11.9312714776632  16.9819639278557 11.7938144329897  L 9.5 3.69072164948454  L 2.01803607214429 11.7938144329897  C 1.89111556446226 11.9312714776632  1.74515698062792 12  1.58016032064128 12  C 1.41516366065464 12  1.26920507682031 11.9312714776632  1.14228456913828 11.7938144329897  L 0.190380761523046 10.7628865979381  C 0.0634602538410155 10.6254295532646  0 10.46735395189  0 10.2886597938144  C 0 10.1099656357388  0.0634602538410155 9.95189003436426  0.190380761523046 9.81443298969072  L 9.06212424849699 0.20618556701031  C 9.18904475617903 0.0687285223367682  9.33500334001336 0  9.5 0  C 9.66499665998664 0  9.81095524382098 0.0687285223367682  9.93787575150301 0.20618556701031  L 18.809619238477 9.81443298969072  Z " fill-rule="nonzero" fill="#000000" stroke="none" transform="matrix(1 0 0 1 280 228 )" />
  </g>
</svg>