<?xml version="1.0" encoding="utf-8"?>
<svg version="1.1" xmlns:xlink="http://www.w3.org/1999/xlink" width="26px" height="26px" xmlns="http://www.w3.org/2000/svg">
  <g transform="matrix(1 0 0 1 -1115 -410 )">
    <path d="M 1128 411  C 1134.72 411  1140 416.28  1140 423  C 1140 429.72  1134.72 435  1128 435  C 1121.28 435  1116 429.72  1116 423  C 1116 416.28  1121.28 411  1128 411  Z " fill-rule="nonzero" fill="#0079fe" stroke="none" />
    <path d="M 1128 411  C 1134.72 411  1140 416.28  1140 423  C 1140 429.72  1134.72 435  1128 435  C 1121.28 435  1116 429.72  1116 423  C 1116 416.28  1121.28 411  1128 411  Z " stroke-width="2" stroke="#0079fe" fill="none" />
  </g>
</svg>