<?xml version="1.0" encoding="utf-8"?>
<svg version="1.1" xmlns:xlink="http://www.w3.org/1999/xlink" width="19px" height="6px" xmlns="http://www.w3.org/2000/svg">
  <g transform="matrix(1 0 0 1 -279 -730 )">
    <path d="M 18.809619238477 4.90721649484536  C 18.936539746159 4.97594501718213  19 5.05498281786942  19 5.14432989690722  C 19 5.23367697594502  18.936539746159 5.3127147766323  18.809619238477 5.38144329896907  L 17.8577154308617 5.89690721649484  C 17.7307949231797 5.96563573883161  17.5848363393454 6  17.4198396793587 6  C 17.2548430193721 6  17.1088844355377 5.96563573883161  16.9819639278557 5.89690721649484  L 9.5 1.84536082474227  L 2.01803607214429 5.89690721649484  C 1.89111556446226 5.96563573883161  1.74515698062792 6  1.58016032064128 6  C 1.41516366065464 6  1.26920507682031 5.96563573883161  1.14228456913828 5.89690721649484  L 0.190380761523046 5.38144329896907  C 0.0634602538410155 5.3127147766323  0 5.23367697594502  0 5.14432989690722  C 0 5.05498281786942  0.0634602538410155 4.97594501718213  0.190380761523046 4.90721649484536  L 9.06212424849699 0.103092783505155  C 9.18904475617903 0.0343642611683841  9.33500334001336 0  9.5 0  C 9.66499665998664 0  9.81095524382098 0.0343642611683841  9.93787575150301 0.103092783505155  L 18.809619238477 4.90721649484536  Z " fill-rule="nonzero" fill="#000000" stroke="none" transform="matrix(1 0 0 1 279 730 )" />
  </g>
</svg>