<?xml version="1.0" encoding="utf-8"?>
<svg version="1.1" xmlns:xlink="http://www.w3.org/1999/xlink" width="14px" height="14px" xmlns="http://www.w3.org/2000/svg">
  <g transform="matrix(1 0 0 1 -338 -37 )">
    <path d="M 345 38  C 348.36 38  351 40.64  351 44  C 351 47.36  348.36 50  345 50  C 341.64 50  339 47.36  339 44  C 339 40.64  341.64 38  345 38  Z " fill-rule="nonzero" fill="#0d0d51" stroke="none" />
    <path d="M 345 38  C 348.36 38  351 40.64  351 44  C 351 47.36  348.36 50  345 50  C 341.64 50  339 47.36  339 44  C 339 40.64  341.64 38  345 38  Z " stroke-width="2" stroke="#ffffff" fill="none" />
  </g>
</svg>