<?xml version="1.0" encoding="utf-8"?>
<svg version="1.1" xmlns:xlink="http://www.w3.org/1999/xlink" width="14px" height="13px" xmlns="http://www.w3.org/2000/svg">
  <g transform="matrix(1 0 0 1 -830 -368 )">
    <path d="M 1.07692307692308 9.98214285714286  L 1.07692307692308 12.0714285714286  L 3.5 12.0714285714286  L 3.5 9.98214285714286  L 1.07692307692308 9.98214285714286  Z M 4.03846153846154 9.98214285714286  L 4.03846153846154 12.0714285714286  L 6.73076923076923 12.0714285714286  L 6.73076923076923 9.98214285714286  L 4.03846153846154 9.98214285714286  Z M 1.07692307692308 7.19642857142857  L 1.07692307692308 9.51785714285714  L 3.5 9.51785714285714  L 3.5 7.19642857142857  L 1.07692307692308 7.19642857142857  Z M 4.03846153846154 7.19642857142857  L 4.03846153846154 9.51785714285714  L 6.73076923076923 9.51785714285714  L 6.73076923076923 7.19642857142857  L 4.03846153846154 7.19642857142857  Z M 1.07692307692308 4.64285714285714  L 1.07692307692308 6.73214285714286  L 3.5 6.73214285714286  L 3.5 4.64285714285714  L 1.07692307692308 4.64285714285714  Z M 7.26923076923077 9.98214285714286  L 7.26923076923077 12.0714285714286  L 9.96153846153846 12.0714285714286  L 9.96153846153846 9.98214285714286  L 7.26923076923077 9.98214285714286  Z M 4.03846153846154 4.64285714285714  L 4.03846153846154 6.73214285714286  L 6.73076923076923 6.73214285714286  L 6.73076923076923 4.64285714285714  L 4.03846153846154 4.64285714285714  Z M 10.5 9.98214285714286  L 10.5 12.0714285714286  L 12.9230769230769 12.0714285714286  L 12.9230769230769 9.98214285714286  L 10.5 9.98214285714286  Z M 7.26923076923077 7.19642857142857  L 7.26923076923077 9.51785714285714  L 9.96153846153846 9.51785714285714  L 9.96153846153846 7.19642857142857  L 7.26923076923077 7.19642857142857  Z M 4.22776442307692 3.41322544642857  C 4.28104967948718 3.36728050595238  4.30769230769231 3.31287202380952  4.30769230769231 3.25  L 4.30769230769231 1.16071428571429  C 4.30769230769231 1.09784226190476  4.28104967948718 1.0434337797619  4.22776442307692 0.997488839285714  C 4.17447916666667 0.951543898809523  4.11137820512821 0.928571428571428  4.03846153846154 0.928571428571428  L 3.5 0.928571428571428  C 3.42708333333333 0.928571428571428  3.36398237179487 0.951543898809523  3.31069711538462 0.997488839285714  C 3.25741185897436 1.0434337797619  3.23076923076923 1.09784226190476  3.23076923076923 1.16071428571429  L 3.23076923076923 3.25  C 3.23076923076923 3.31287202380952  3.25741185897436 3.36728050595238  3.31069711538462 3.41322544642857  C 3.36398237179487 3.45917038690476  3.42708333333333 3.48214285714286  3.5 3.48214285714286  L 4.03846153846154 3.48214285714286  C 4.11137820512821 3.48214285714286  4.17447916666667 3.45917038690476  4.22776442307692 3.41322544642857  Z M 10.5 7.19642857142857  L 10.5 9.51785714285714  L 12.9230769230769 9.51785714285714  L 12.9230769230769 7.19642857142857  L 10.5 7.19642857142857  Z M 7.26923076923077 4.64285714285714  L 7.26923076923077 6.73214285714286  L 9.96153846153846 6.73214285714286  L 9.96153846153846 4.64285714285714  L 7.26923076923077 4.64285714285714  Z M 10.5 4.64285714285714  L 10.5 6.73214285714286  L 12.9230769230769 6.73214285714286  L 12.9230769230769 4.64285714285714  L 10.5 4.64285714285714  Z M 10.6893028846154 3.41322544642857  C 10.7425881410256 3.36728050595238  10.7692307692308 3.31287202380952  10.7692307692308 3.25  L 10.7692307692308 1.16071428571429  C 10.7692307692308 1.09784226190476  10.7425881410256 1.0434337797619  10.6893028846154 0.997488839285714  C 10.6360176282051 0.951543898809523  10.5729166666667 0.928571428571428  10.5 0.928571428571428  L 9.96153846153846 0.928571428571428  C 9.8886217948718 0.928571428571428  9.82552083333333 0.951543898809523  9.77223557692308 0.997488839285714  C 9.71895032051282 1.0434337797619  9.69230769230769 1.09784226190476  9.69230769230769 1.16071428571429  L 9.69230769230769 3.25  C 9.69230769230769 3.31287202380952  9.71895032051282 3.36728050595238  9.77223557692308 3.41322544642857  C 9.82552083333333 3.45917038690476  9.8886217948718 3.48214285714286  9.96153846153846 3.48214285714286  L 10.5 3.48214285714286  C 10.5729166666667 3.48214285714286  10.6360176282051 3.45917038690476  10.6893028846154 3.41322544642857  Z M 13.6802884615385 2.1328125  C 13.8934294871795 2.31659226190476  14 2.53422619047619  14 2.78571428571429  L 14 12.0714285714286  C 14 12.3229166666667  13.8934294871795 12.5405505952381  13.6802884615385 12.7243303571429  C 13.4671474358974 12.9081101190476  13.2147435897436 13  12.9230769230769 13  L 1.07692307692308 13  C 0.78525641025641 13  0.532852564102564 12.9081101190476  0.319711538461538 12.7243303571429  C 0.106570512820513 12.5405505952381  0 12.3229166666667  0 12.0714285714286  L 0 2.78571428571429  C 0 2.53422619047619  0.106570512820513 2.31659226190476  0.319711538461538 2.1328125  C 0.532852564102564 1.94903273809524  0.78525641025641 1.85714285714286  1.07692307692308 1.85714285714286  L 2.15384615384615 1.85714285714286  L 2.15384615384615 1.16071428571429  C 2.15384615384615 0.841517857142858  2.28565705128205 0.568266369047618  2.54927884615385 0.340959821428572  C 2.81290064102564 0.113653273809524  3.12980769230769 0  3.5 0  L 4.03846153846154 0  C 4.40865384615385 0  4.7255608974359 0.113653273809524  4.98918269230769 0.340959821428572  C 5.25280448717949 0.568266369047618  5.38461538461539 0.841517857142858  5.38461538461539 1.16071428571429  L 5.38461538461539 1.85714285714286  L 8.61538461538462 1.85714285714286  L 8.61538461538462 1.16071428571429  C 8.61538461538462 0.841517857142858  8.74719551282051 0.568266369047618  9.01081730769231 0.340959821428572  C 9.2744391025641 0.113653273809524  9.59134615384615 0  9.96153846153846 0  L 10.5 0  C 10.8701923076923 0  11.1870993589744 0.113653273809524  11.4507211538462 0.340959821428572  C 11.714342948718 0.568266369047618  11.8461538461538 0.841517857142858  11.8461538461538 1.16071428571429  L 11.8461538461538 1.85714285714286  L 12.9230769230769 1.85714285714286  C 13.2147435897436 1.85714285714286  13.4671474358974 1.94903273809524  13.6802884615385 2.1328125  Z " fill-rule="nonzero" fill="#aaaaaa" stroke="none" transform="matrix(1 0 0 1 830 368 )" />
  </g>
</svg>