<?xml version="1.0" encoding="utf-8"?>
<svg version="1.1" xmlns:xlink="http://www.w3.org/1999/xlink" width="25px" height="27px" xmlns="http://www.w3.org/2000/svg">
  <g transform="matrix(1 0 0 1 -338 -68 )">
    <path d="M 15.33203125 16.55859375  C 16.6491386217949 15.1361177884615  17.3076923076923 13.4242788461538  17.3076923076923 11.4230769230769  C 17.3076923076923 9.421875  16.6491386217949 7.71003605769231  15.33203125 6.28756009615385  C 14.0149238782051 4.86508413461538  12.4298878205128 4.15384615384615  10.5769230769231 4.15384615384615  C 8.72395833333333 4.15384615384615  7.13892227564103 4.86508413461538  5.82181490384615 6.28756009615385  C 4.50470753205128 7.71003605769231  3.84615384615385 9.421875  3.84615384615385 11.4230769230769  C 3.84615384615385 13.4242788461538  4.50470753205128 15.1361177884615  5.82181490384615 16.55859375  C 7.13892227564103 17.9810697115385  8.72395833333333 18.6923076923077  10.5769230769231 18.6923076923077  C 12.4298878205128 18.6923076923077  14.0149238782051 17.9810697115385  15.33203125 16.55859375  Z M 24.4441105769231 23.4627403846154  C 24.814703525641 23.8629807692308  25 24.3497596153846  25 24.9230769230769  C 25 25.4855769230769  24.8096955128205 25.9723557692308  24.4290865384615 26.3834134615385  C 24.0484775641026 26.7944711538462  23.5977564102564 27  23.0769230769231 27  C 22.5360576923077 27  22.0853365384615 26.7944711538462  21.7247596153846 26.3834134615385  L 16.5715144230769 20.8341346153846  C 14.7786458333333 22.1754807692308  12.7804487179487 22.8461538461538  10.5769230769231 22.8461538461538  C 9.14463141025641 22.8461538461538  7.77493990384615 22.5459735576923  6.46784855769231 21.9456129807692  C 5.16075721153846 21.3452524038462  4.03395432692308 20.5339543269231  3.08743990384615 19.51171875  C 2.14092548076923 18.4894831730769  1.38972355769231 17.2725360576923  0.833834134615385 15.8608774038462  C 0.277944711538462 14.44921875  0 12.9699519230769  0 11.4230769230769  C 0 9.87620192307692  0.277944711538462 8.39693509615385  0.833834134615385 6.98527644230769  C 1.38972355769231 5.57361778846154  2.14092548076923 4.35667067307692  3.08743990384615 3.33443509615385  C 4.03395432692308 2.31219951923077  5.16075721153846 1.50090144230769  6.46784855769231 0.900540865384616  C 7.77493990384615 0.300180288461538  9.14463141025641 0  10.5769230769231 0  C 12.0092147435897 0  13.37890625 0.300180288461538  14.6859975961538 0.900540865384616  C 15.9930889423077 1.50090144230769  17.1198918269231 2.31219951923077  18.06640625 3.33443509615385  C 19.0129206730769 4.35667067307692  19.7641225961538 5.57361778846154  20.3200120192308 6.98527644230769  C 20.8759014423077 8.39693509615385  21.1538461538462 9.87620192307692  21.1538461538462 11.4230769230769  C 21.1538461538462 13.8028846153846  20.5328525641026 15.9609375  19.2908653846154 17.8972355769231  L 24.4441105769231 23.4627403846154  Z " fill-rule="nonzero" fill="#0079fe" stroke="none" transform="matrix(1 0 0 1 338 68 )" />
  </g>
</svg>