<?xml version="1.0" encoding="utf-8"?>
<svg version="1.1" xmlns:xlink="http://www.w3.org/1999/xlink" width="944px" height="73px" xmlns="http://www.w3.org/2000/svg">
  <g transform="matrix(1 0 0 1 -167 -163 )">
    <path d="M 168 171  A 7 7 0 0 1 175 164 L 1103 164  A 7 7 0 0 1 1110 171 L 1110 228  A 7 7 0 0 1 1103 235 L 175 235  A 7 7 0 0 1 168 228 L 168 171  Z " fill-rule="nonzero" fill="#81d3f8" stroke="none" fill-opacity="0.168627450980392" />
    <path d="M 167.5 171  A 7.5 7.5 0 0 1 175 163.5 L 1103 163.5  A 7.5 7.5 0 0 1 1110.5 171 L 1110.5 228  A 7.5 7.5 0 0 1 1103 235.5 L 175 235.5  A 7.5 7.5 0 0 1 167.5 228 L 167.5 171  Z " stroke-width="1" stroke="#0079fe" fill="none" stroke-opacity="0.654901960784314" />
  </g>
</svg>