<?xml version="1.0" encoding="utf-8"?>
<svg version="1.1" xmlns:xlink="http://www.w3.org/1999/xlink" width="51px" height="25px" xmlns="http://www.w3.org/2000/svg">
  <g transform="matrix(1 0 0 1 -173 -1034 )">
    <path d="M 174 1042  A 7 7 0 0 1 181 1035 L 216 1035  A 7 7 0 0 1 223 1042 L 223 1051  A 7 7 0 0 1 216 1058 L 181 1058  A 7 7 0 0 1 174 1051 L 174 1042  Z " fill-rule="nonzero" fill="#0079fe" stroke="none" />
    <path d="M 173.5 1042  A 7.5 7.5 0 0 1 181 1034.5 L 216 1034.5  A 7.5 7.5 0 0 1 223.5 1042 L 223.5 1051  A 7.5 7.5 0 0 1 216 1058.5 L 181 1058.5  A 7.5 7.5 0 0 1 173.5 1051 L 173.5 1042  Z " stroke-width="1" stroke="#0079fe" fill="none" stroke-opacity="0.654901960784314" />
  </g>
</svg>