<?xml version="1.0" encoding="utf-8"?>
<svg version="1.1" xmlns:xlink="http://www.w3.org/1999/xlink" width="80px" height="30px" xmlns="http://www.w3.org/2000/svg">
  <g transform="matrix(1 0 0 1 -1263 -427 )">
    <path d="M 1264 430  A 2 2 0 0 1 1266 428 L 1340 428  A 2 2 0 0 1 1342 430 L 1342 454  A 2 2 0 0 1 1340 456 L 1266 456  A 2 2 0 0 1 1264 454 L 1264 430  Z " fill-rule="nonzero" fill="#f0f7ff" stroke="none" />
    <path d="M 1263.5 430  A 2.5 2.5 0 0 1 1266 427.5 L 1340 427.5  A 2.5 2.5 0 0 1 1342.5 430 L 1342.5 454  A 2.5 2.5 0 0 1 1340 456.5 L 1266 456.5  A 2.5 2.5 0 0 1 1263.5 454 L 1263.5 430  Z " stroke-width="1" stroke="#7abbff" fill="none" stroke-opacity="0.996078431372549" />
  </g>
</svg>