<?xml version="1.0" encoding="utf-8"?>
<svg version="1.1" xmlns:xlink="http://www.w3.org/1999/xlink" width="20px" height="20px" xmlns="http://www.w3.org/2000/svg">
  <g transform="matrix(1 0 0 1 -1424 -153 )">
    <path d="M 14.1666666666667 6.66666666666667  C 14.5138888888889 6.66666666666667  14.7612847222222 6.81857638888889  14.9088541666667 7.12239583333333  C 15.0651041666667 7.42621527777778  15.0434027777778 7.71267361111111  14.84375 7.98177083333333  L 10.6770833333333 13.8151041666667  C 10.5121527777778 14.0494791666667  10.2864583333333 14.1666666666667  10 14.1666666666667  C 9.71354166666667 14.1666666666667  9.48784722222222 14.0494791666667  9.32291666666667 13.8151041666667  L 5.15625 7.98177083333333  C 4.95659722222222 7.71267361111111  4.93489583333333 7.42621527777778  5.09114583333333 7.12239583333333  C 5.23871527777778 6.81857638888889  5.48611111111111 6.66666666666667  5.83333333333333 6.66666666666667  L 14.1666666666667 6.66666666666667  Z M 16.54296875 16.54296875  C 16.6254340277778 16.4605034722222  16.6666666666667 16.3628472222222  16.6666666666667 16.25  L 16.6666666666667 3.75  C 16.6666666666667 3.63715277777778  16.6254340277778 3.53949652777778  16.54296875 3.45703125  C 16.4605034722222 3.37456597222222  16.3628472222222 3.33333333333333  16.25 3.33333333333333  L 3.75 3.33333333333333  C 3.63715277777778 3.33333333333333  3.53949652777778 3.37456597222222  3.45703125 3.45703125  C 3.37456597222222 3.53949652777778  3.33333333333333 3.63715277777778  3.33333333333333 3.75  L 3.33333333333333 16.25  C 3.33333333333333 16.3628472222222  3.37456597222222 16.4605034722222  3.45703125 16.54296875  C 3.53949652777778 16.6254340277778  3.63715277777778 16.6666666666667  3.75 16.6666666666667  L 16.25 16.6666666666667  C 16.3628472222222 16.6666666666667  16.4605034722222 16.6254340277778  16.54296875 16.54296875  Z M 18.8997395833333 1.10026041666667  C 19.6332465277778 1.83376736111111  20 2.71701388888889  20 3.75  L 20 16.25  C 20 17.2829861111111  19.6332465277778 18.1662326388889  18.8997395833333 18.8997395833333  C 18.1662326388889 19.6332465277778  17.2829861111111 20  16.25 20  L 3.75 20  C 2.71701388888889 20  1.83376736111111 19.6332465277778  1.10026041666667 18.8997395833333  C 0.366753472222222 18.1662326388889  0 17.2829861111111  0 16.25  L 0 3.75  C 0 2.71701388888889  0.366753472222222 1.83376736111111  1.10026041666667 1.10026041666667  C 1.83376736111111 0.366753472222221  2.71701388888889 0  3.75 0  L 16.25 0  C 17.2829861111111 0  18.1662326388889 0.366753472222221  18.8997395833333 1.10026041666667  Z " fill-rule="nonzero" fill="#ffffff" stroke="none" transform="matrix(1 0 0 1 1424 153 )" />
  </g>
</svg>