<?xml version="1.0" encoding="utf-8"?>
<svg version="1.1" xmlns:xlink="http://www.w3.org/1999/xlink" width="726px" height="142px" xmlns="http://www.w3.org/2000/svg">
  <g transform="matrix(1 0 0 1 -224 -837 )">
    <path d="M 225 841  A 3 3 0 0 1 228 838 L 946 838  A 3 3 0 0 1 949 841 L 949 975  A 3 3 0 0 1 946 978 L 228 978  A 3 3 0 0 1 225 975 L 225 841  Z " fill-rule="nonzero" fill="#000000" stroke="none" fill-opacity="0.0196078431372549" />
    <path d="M 224.5 841  A 3.5 3.5 0 0 1 228 837.5 L 946 837.5  A 3.5 3.5 0 0 1 949.5 841 L 949.5 975  A 3.5 3.5 0 0 1 946 978.5 L 228 978.5  A 3.5 3.5 0 0 1 224.5 975 L 224.5 841  Z " stroke-width="1" stroke-dasharray="9,4" stroke="#d9d9d9" fill="none" stroke-dashoffset="0.5" />
  </g>
</svg>