<?xml version="1.0" encoding="utf-8"?>
<svg version="1.1" xmlns:xlink="http://www.w3.org/1999/xlink" width="30px" height="30px" xmlns="http://www.w3.org/2000/svg">
  <g transform="matrix(1 0 0 1 -213 -2155 )">
    <path d="M 228 2156  C 235.84 2156  242 2162.16  242 2170  C 242 2177.84  235.84 2184  228 2184  C 220.16 2184  214 2177.84  214 2170  C 214 2162.16  220.16 2156  228 2156  Z " fill-rule="nonzero" fill="#0079fe" stroke="none" />
    <path d="M 228 2156  C 235.84 2156  242 2162.16  242 2170  C 242 2177.84  235.84 2184  228 2184  C 220.16 2184  214 2177.84  214 2170  C 214 2162.16  220.16 2156  228 2156  Z " stroke-width="2" stroke="#0079fe" fill="none" />
  </g>
</svg>