<?xml version="1.0" encoding="utf-8"?>
<svg version="1.1" xmlns:xlink="http://www.w3.org/1999/xlink" width="47px" height="35px" xmlns="http://www.w3.org/2000/svg">
  <g transform="matrix(1 0 0 1 -1641 -7 )">
    <path d="M 1641 7  L 1688 7  L 1688 42  L 1641 42  L 1641 7  " fill-rule="nonzero" fill="#cccccc" stroke="none" />
    <path d="M 1643 9  L 1686 9  L 1686 40  L 1643 40  L 1643 9  " fill-rule="nonzero" fill="#ffffff" stroke="none" />
    <path d="M 1668.065 17.5  C 1666.595 17.5  1665.44 16.345  1665.44 14.875  C 1665.44 13.405  1666.595 12.25  1668.065 12.25  C 1669.535 12.25  1670.69 13.405  1670.69 14.875  C 1670.69 16.345  1669.535 17.5  1668.065 17.5  " fill-rule="nonzero" fill="#cccccc" stroke="none" />
    <path d="M 1644 39  L 1644 23.05  L 1654.25 15.8  L 1668.6 26.0425531914894  L 1676.8 20.15  L 1685 26.0425531914894  L 1685 39  L 1644 39  " fill-rule="nonzero" fill="#169bd5" stroke="none" />
  </g>
</svg>